<svg xmlns="http://www.w3.org/2000/svg" xmlns:xlink="http://www.w3.org/1999/xlink" viewBox="0 0 223.73 84.34"><defs><style>.cls-1{fill:#4d4d4f;}.cls-2{fill:#d2223e;}.cls-3{fill:#fff;}.cls-4{fill:#f2f2f2;}.cls-5{fill:url(#linear-gradient);}.cls-6{fill:#bbbdbf;}.cls-7{fill:#bfbfbf;}.cls-8{fill:#c5c7c9;}.cls-13,.cls-9{fill:#d9d9d9;}.cls-10{fill:#e6e6e6;}.cls-11{fill:#a6a8ab;}.cls-12{fill:url(#linear-gradient-2);}.cls-13{stroke:#d9d9d9;stroke-width:0.05px;}.cls-14{fill:url(#linear-gradient-3);}.cls-15{fill:#ffca05;}.cls-16{fill:#e1ab25;}</style><linearGradient id="linear-gradient" x1="21.85" y1="35.04" x2="29.51" y2="35.04" gradientUnits="userSpaceOnUse"><stop offset="0" stop-color="#fff"/><stop offset="0.99" stop-color="#d9d9d9"/></linearGradient><linearGradient id="linear-gradient-2" x1="40.58" y1="32.05" x2="52.07" y2="32.05" gradientUnits="userSpaceOnUse"><stop offset="0" stop-color="#fff"/><stop offset="1" stop-color="#bbbdbf"/></linearGradient><linearGradient id="linear-gradient-3" x1="26.34" y1="34.93" x2="17.95" y2="28.73" xlink:href="#linear-gradient-2"/></defs><title>Zasób 8logo</title><g id="Warstwa_2" data-name="Warstwa 2"><g id="Layer_1" data-name="Layer 1"><path class="cls-1" d="M185.91,46.88a1,1,0,0,0,.75.29,1,1,0,0,0,.74-.29,1.18,1.18,0,0,0,.31-.9,1.16,1.16,0,0,0-.31-.89,1.11,1.11,0,0,0-1.49,0,1.18,1.18,0,0,0-.3.89,1.21,1.21,0,0,0,.3.9m1.63,2.29h-1.78V60.91h1.78Zm-7-2.29a1,1,0,0,0,.75.29,1,1,0,0,0,.74-.29,1.18,1.18,0,0,0,.31-.9,1.16,1.16,0,0,0-.31-.89,1.11,1.11,0,0,0-1.49,0,1.18,1.18,0,0,0-.3.89,1.21,1.21,0,0,0,.3.9m1.63,15.83V49.17h-1.78V62.84a2.09,2.09,0,0,1-.39,1.39,1.53,1.53,0,0,1-1.23.46,5.23,5.23,0,0,1-1.46-.21v1.45a4.29,4.29,0,0,0,1.65.27q3.2,0,3.2-3.47m-4.47-2.2V58.94a7.92,7.92,0,0,1-3,.63,3,3,0,0,1-2.59-1.16,5.44,5.44,0,0,1-.87-3.32q0-4.56,3.58-4.56a5.78,5.78,0,0,1,1.23.15,8.54,8.54,0,0,1,1.29.39l.55-1.51a5.57,5.57,0,0,0-1.33-.43,8.07,8.07,0,0,0-1.69-.18,5.11,5.11,0,0,0-4,1.61,6.66,6.66,0,0,0-1.42,4.55,6.45,6.45,0,0,0,1.4,4.44,5,5,0,0,0,3.95,1.57,6.41,6.41,0,0,0,3-.61m-18.2-1.36a1.83,1.83,0,0,1-.58-1.47,2,2,0,0,1,.94-1.82,6.46,6.46,0,0,1,3.06-.66l1.78-.08v1.06a3.37,3.37,0,0,1-.95,2.55,3.61,3.61,0,0,1-2.61.91,2.42,2.42,0,0,1-1.63-.5m7,1.76v-8a3.89,3.89,0,0,0-1-3,4.47,4.47,0,0,0-3.11-.93,8.24,8.24,0,0,0-2.07.27,8.35,8.35,0,0,0-1.9.74l.55,1.36a7.74,7.74,0,0,1,3.32-.9,2.44,2.44,0,0,1,1.9.66,3,3,0,0,1,.6,2v.73l-2,.06q-5.69.17-5.69,3.73a3.28,3.28,0,0,0,1,2.56,3.92,3.92,0,0,0,2.74.9,5.35,5.35,0,0,0,2.18-.39,4.94,4.94,0,0,0,1.75-1.49h.09l.35,1.67ZM155,59.53h-6.48l6.32-9V49.17h-8v1.38h6l-6.41,9.15v1.21H155ZM138.78,61l-.65,1.67a2.72,2.72,0,0,1-2.61,2.06,6.23,6.23,0,0,1-1.32-.13V66a7.12,7.12,0,0,0,1.61.18,3.73,3.73,0,0,0,2.46-.83A6.68,6.68,0,0,0,140,62.54l5-13.37h-1.91q-2.46,6.81-2.91,8.14t-.58,1.87h-.09a25.69,25.69,0,0,0-1.05-3.31L136,49.17H134Zm-9.56-11.4a5.17,5.17,0,0,0-1.57,1.77h-.09l-.2-2.17H125.9V60.91h1.78v-6.3a4.22,4.22,0,0,1,1-2.88,3.13,3.13,0,0,1,2.44-1.16,6.08,6.08,0,0,1,1.29.16l.25-1.65a7,7,0,0,0-1.4-.13,3.55,3.55,0,0,0-2,.62m-5.62-.41h-3V48.4a3.73,3.73,0,0,1,.48-2.15,1.71,1.71,0,0,1,1.49-.67,5.9,5.9,0,0,1,1.76.33l.46-1.42a7.79,7.79,0,0,0-2.19-.37q-3.78,0-3.78,4.33v.65l-2.1.64v.8h2.1V60.91h1.78V50.55h3ZM109.14,61l-.65,1.67a2.72,2.72,0,0,1-2.61,2.06,6.23,6.23,0,0,1-1.32-.13V66a7.12,7.12,0,0,0,1.61.18,3.73,3.73,0,0,0,2.46-.83,6.68,6.68,0,0,0,1.75-2.81l5-13.37h-1.91Q111,56,110.6,57.3T110,59.17h-.09a25.69,25.69,0,0,0-1.05-3.31l-2.57-6.7h-1.91Zm-4.92-13.49.77-1.56a9.71,9.71,0,0,0-4.31-.9,7.92,7.92,0,0,0-4,1A6.49,6.49,0,0,0,94,48.81a9.41,9.41,0,0,0-.91,4.24A8.65,8.65,0,0,0,95,59a6.79,6.79,0,0,0,5.34,2.1,11.51,11.51,0,0,0,4-.61v-1.6a14.05,14.05,0,0,1-3.74.59,5.12,5.12,0,0,1-4.11-1.68,7.07,7.07,0,0,1-1.44-4.75,6.93,6.93,0,0,1,1.49-4.71,5.12,5.12,0,0,1,4.08-1.72,8.31,8.31,0,0,1,3.56.84"/><path class="cls-1" d="M215.67,25.55a3.13,3.13,0,0,1,2.64-1.15A3.18,3.18,0,0,1,221,25.57a5.46,5.46,0,0,1,.91,3.4A5.55,5.55,0,0,1,221,32.4a3.57,3.57,0,0,1-5.3,0,5.57,5.57,0,0,1-.9-3.43,5.51,5.51,0,0,1,.89-3.42m6.6-1a5,5,0,0,0-3.92-1.64,5.08,5.08,0,0,0-4,1.6A6.47,6.47,0,0,0,212.94,29a7.39,7.39,0,0,0,.66,3.24,4.87,4.87,0,0,0,1.89,2.12,5.28,5.28,0,0,0,2.8.74,5.09,5.09,0,0,0,4-1.61A6.47,6.47,0,0,0,223.73,29a6.45,6.45,0,0,0-1.45-4.44m-14,10.32,3.25-11.74h-1.84q-2,7.84-2.23,8.65a11.53,11.53,0,0,0-.23,1.19h-.09a22.79,22.79,0,0,0-.81-3.1l-2.1-6.74h-1.93l-2.15,6.74q-.19.57-.46,1.54T199.34,33h-.09a27.4,27.4,0,0,0-.68-3.12l-1.73-6.74H195l3.2,11.74h2.06L202.46,28q.32-1,.75-2.89h.09q.56,2.24.76,2.87l2.15,6.89ZM190.47,33a2.38,2.38,0,0,1-.5-1.63V24.49h3.41V23.11H190V20.39h-1l-.75,2.51-1.68.74v.86h1.68v7q0,3.59,3.41,3.59a6.42,6.42,0,0,0,1-.09,3.2,3.2,0,0,0,.85-.23V33.38a6.1,6.1,0,0,1-.7.14,5.79,5.79,0,0,1-.91.07,1.75,1.75,0,0,1-1.38-.57M184,29.71a7.69,7.69,0,0,0-2.82-1.53,17.21,17.21,0,0,1-2.06-.87,2.37,2.37,0,0,1-.78-.63,1.33,1.33,0,0,1-.24-.8,1.23,1.23,0,0,1,.64-1.09,3.7,3.7,0,0,1,1.91-.4,8.52,8.52,0,0,1,3.2.73l.63-1.45a9.38,9.38,0,0,0-3.71-.77,5.43,5.43,0,0,0-3.2.83A2.63,2.63,0,0,0,176.43,26a2.7,2.7,0,0,0,.34,1.38,3.19,3.19,0,0,0,1,1,12.62,12.62,0,0,0,2.33,1.07,9.35,9.35,0,0,1,2.32,1.15,1.53,1.53,0,0,1-.16,2.53,4.24,4.24,0,0,1-2.14.44,7.56,7.56,0,0,1-1.87-.25,8.86,8.86,0,0,1-1.82-.67v1.65a7.45,7.45,0,0,0,3.64.74,5.74,5.74,0,0,0,3.43-.89,2.94,2.94,0,0,0,1.22-2.53,2.7,2.7,0,0,0-.73-1.94m-12.75-6.19a5.17,5.17,0,0,0-1.57,1.77h-.09l-.2-2.17h-1.47V34.85h1.78v-6.3a4.22,4.22,0,0,1,1-2.88,3.13,3.13,0,0,1,2.44-1.16,6.08,6.08,0,0,1,1.29.16L174.7,23a6.9,6.9,0,0,0-1.4-.13,3.55,3.55,0,0,0-2,.62m-8.92,1.76a3.9,3.9,0,0,1,.75,2.58H157a4.25,4.25,0,0,1,1-2.55,2.9,2.9,0,0,1,2.26-.92,2.64,2.64,0,0,1,2.14.9m.37,9.61a9.41,9.41,0,0,0,1.78-.58V32.72a9.44,9.44,0,0,1-3.75.79A3.61,3.61,0,0,1,158,32.44a4.65,4.65,0,0,1-1-3.14H165V28.18a5.57,5.57,0,0,0-1.29-3.83,4.43,4.43,0,0,0-3.49-1.45,4.64,4.64,0,0,0-3.75,1.67,6.81,6.81,0,0,0-1.4,4.51,6.14,6.14,0,0,0,1.51,4.4,5.39,5.39,0,0,0,4.11,1.59,10,10,0,0,0,2-.18M150.62,33a2.38,2.38,0,0,1-.5-1.63V24.49h3.41V23.11h-3.41V20.39h-1l-.75,2.51-1.68.74v.86h1.68v7q0,3.59,3.41,3.59a6.45,6.45,0,0,0,1-.09,3.23,3.23,0,0,0,.85-.23V33.38a6.07,6.07,0,0,1-.7.14,5.78,5.78,0,0,1-.91.07,1.75,1.75,0,0,1-1.38-.57m-6.45-3.32a7.69,7.69,0,0,0-2.82-1.53,17.42,17.42,0,0,1-2.06-.87,2.37,2.37,0,0,1-.78-.63,1.33,1.33,0,0,1-.24-.8,1.23,1.23,0,0,1,.64-1.09,3.69,3.69,0,0,1,1.91-.4,8.51,8.51,0,0,1,3.2.73l.63-1.45a9.37,9.37,0,0,0-3.71-.77,5.44,5.44,0,0,0-3.2.83A2.63,2.63,0,0,0,136.58,26a2.7,2.7,0,0,0,.34,1.38,3.19,3.19,0,0,0,1,1,12.62,12.62,0,0,0,2.33,1.07,9.36,9.36,0,0,1,2.32,1.15,1.53,1.53,0,0,1-.15,2.53,4.24,4.24,0,0,1-2.14.44,7.58,7.58,0,0,1-1.87-.25,8.85,8.85,0,0,1-1.82-.67v1.65a7.44,7.44,0,0,0,3.64.74,5.74,5.74,0,0,0,3.43-.89,2.94,2.94,0,0,0,1.22-2.53,2.71,2.71,0,0,0-.73-1.94m-12-8.89a1,1,0,0,0,.75.29,1,1,0,0,0,.74-.29,1.18,1.18,0,0,0,.31-.9,1.16,1.16,0,0,0-.31-.89,1.11,1.11,0,0,0-1.49,0,1.18,1.18,0,0,0-.3.89,1.21,1.21,0,0,0,.3.9m1.63,2.29H132V34.85h1.78Zm-5.26,11.74V27.19a4.36,4.36,0,0,0-1.07-3.27,4.46,4.46,0,0,0-3.19-1,5,5,0,0,0-2.2.48,3.64,3.64,0,0,0-1.53,1.34h-.09l-.29-1.61H118.7V34.85h1.78V28.69a5,5,0,0,1,.86-3.29,3.38,3.38,0,0,1,2.7-1,2.67,2.67,0,0,1,2,.71,3.06,3.06,0,0,1,.65,2.14v7.6Zm-15-14a1,1,0,0,0,.75.29,1,1,0,0,0,.74-.29,1.18,1.18,0,0,0,.31-.9A1.16,1.16,0,0,0,115,19a1.11,1.11,0,0,0-1.49,0,1.18,1.18,0,0,0-.3.89,1.21,1.21,0,0,0,.3.9m1.63,2.29h-1.78V34.85h1.78ZM102.36,34.85,107.71,21h.09q-.15,2-.15,3.77V34.85h1.82V19.19h-2.72l-5,12.92h-.09l-5-12.92H94V34.85h1.68v-10q0-2.27-.15-3.92h.09l5.31,13.89Z"/><path class="cls-2" d="M0,67.13a11.52,11.52,0,0,0,1.85,5.61,13.71,13.71,0,0,0,8.62,6.32,36.39,36.39,0,0,0,7.17.3l7.45,0a14.63,14.63,0,0,1,6.37,1.1,5.5,5.5,0,0,1,3.25,3.73s0,.12,0,.16h.39c0-.06,0-.17,0-.2a5.6,5.6,0,0,1,3.57-3.83,16.63,16.63,0,0,1,6.46-1l11.07,0A14.21,14.21,0,0,0,59.6,79a13.61,13.61,0,0,0,8.48-6.35A11.73,11.73,0,0,0,69.86,67V0H0Z"/><path class="cls-3" d="M63.92,40.07c-1.81-.89-3.42-2-5.11-3a1.23,1.23,0,0,1-.43-.32,24.49,24.49,0,0,0,4.53,1.42,7.63,7.63,0,0,0,5-.59,11.54,11.54,0,0,0-5.77-4.8,8.22,8.22,0,0,0,3.52-.27,2.24,2.24,0,0,0,1.76-2.14,8,8,0,0,1-4.46.27c1.91-.4,3.68-1,4.46-2.5A10.31,10.31,0,0,0,63,26.34c1-.48,2.46-1,3-1.92a1.73,1.73,0,0,0-.13-1.74c-.31.22-.6.48-.92.7a11.48,11.48,0,0,1-1.06.61,7.38,7.38,0,0,1-2.41.92A8.65,8.65,0,0,0,63.76,23a6.63,6.63,0,0,0,1.64-2.5,7.68,7.68,0,0,0-4.17-.27c.76-.84,2.07-2.67.94-4a11.06,11.06,0,0,1-3,2.93,9.66,9.66,0,0,0,2.25-5,9.07,9.07,0,0,0-4.33,1.17s0,0,0,0a6.34,6.34,0,0,0,1.67-3.92c-5.55.6-9.75,2.71-12.73,6A15.58,15.58,0,0,0,42.44,23a5.44,5.44,0,0,0,0,3.9,2.74,2.74,0,0,0,2.88,1.71c.66,2.3-1.57,3.3-3.7,3.09A4.11,4.11,0,0,0,41.11,29a1,1,0,0,0,.88-.7,1.68,1.68,0,0,1-1.35-.79c-.47-1,.26-2.4.14-3.56a.72.72,0,0,0,.72-.13c-.53-.48-.55-1.52-.47-2.52.17-2.11.87-5.15-.27-6.65A.71.71,0,0,0,41,13.9c.75,0,.57-1.25.14-1.51-.15.57-1.31.48-1.58.07a1.18,1.18,0,0,0,.14-2,1.7,1.7,0,0,1-.95,1c.3-1.18.55-2.34.95-3.4A23,23,0,0,1,41.08,5.2c-.73.39-1.67.57-2.19,1.17-.45-.57-1.33-.14-1.51.34.05-.59-.21-.87-.74-.88A.6.6,0,0,0,35.79,5c-.07-.46-.39-.66-.63-.95a1.55,1.55,0,0,0-.47,1.11.52.52,0,0,0-.84.61c-.63,0-.77.63-.79,1.17a.89.89,0,0,0-1.51-.34c-.28-.81-1.49-.69-2-1.24a27.42,27.42,0,0,1,2.21,5.73,1.48,1.48,0,0,0-1.26,1.62c-1.14.05-2,.47-2.12,1.56A4.11,4.11,0,0,0,28.71,16a2.2,2.2,0,0,1,1.71-.68,1.31,1.31,0,0,1,1.06.7c-.91.16-1.73.88-2.8.88a1.92,1.92,0,0,1-1.22-.56,1.09,1.09,0,0,0,.23,1.06c1.05,1.05,3.41.1,4.66-.14-.06.13-.07.39,0,.47s.33,0,.52,0a2.18,2.18,0,0,1,1.65,1,2.2,2.2,0,0,1,.47,2,4.67,4.67,0,0,1-2.5,2.82A.89.89,0,0,0,33,24.61a10.23,10.23,0,0,1-1.31,1.65c-.36.37-1.14,1.19-1.82,1.15-.33,0-.43-.25-.61-.45-.35.52-.25,1.65.29,1.87a4.52,4.52,0,0,0-.93,2.86c-1.63-.31-3.77-.49-3.85-2.28a3.52,3.52,0,0,1,.13-1A2.76,2.76,0,0,0,27.45,27a4.57,4.57,0,0,0,.65-2.82A9.52,9.52,0,0,0,25.73,19,22,22,0,0,0,22,15.23,18.71,18.71,0,0,0,11.19,11,9.16,9.16,0,0,0,14,15.37a9.21,9.21,0,0,0-5.68-1.19A6.85,6.85,0,0,0,10,17.51,22.45,22.45,0,0,0,12.5,20c-.85-.53-1.75-1.07-2.64-1.67a7.7,7.7,0,0,1-2.59-2.25A2,2,0,0,0,7,17.35,3.81,3.81,0,0,0,8.69,19.9a9,9,0,0,0-2.59,0,4.12,4.12,0,0,0-2.19.59A9.36,9.36,0,0,0,6.26,23a10.42,10.42,0,0,0,3.06,1.85,10.15,10.15,0,0,1-3.25-1,9.49,9.49,0,0,1-2.3-1.44c-.08-.07-.15-.2-.27-.18a3,3,0,0,0,.63,2.28,4.06,4.06,0,0,0,1.65,1.4A7.66,7.66,0,0,0,2,27.43a9.1,9.1,0,0,0,2.64,2.05,9.36,9.36,0,0,0,3.49,1.19,14.82,14.82,0,0,1-5.59-.5c-.05,2.64,3,2.5,5.54,2.52a19.62,19.62,0,0,0-3.38,2.07,6.62,6.62,0,0,0-2.5,3c2.4.95,5.7,0,7.84-.41-1.64.9-3.34,2.08-5.12,3a3.85,3.85,0,0,1-2.66.63,2.42,2.42,0,0,0,2.43,1.53,7.81,7.81,0,0,0,2.84-.92c.89-.42,1.72-.87,2.46-1.28-2,2.91-4.25,5.6-4.1,10.68a6.83,6.83,0,0,0,3-1.33A24.08,24.08,0,0,0,15.12,43c-1,2-1.81,4.09-2.84,6S10.18,52.86,8.2,53.8A3.71,3.71,0,0,0,12,52.92c1.87-1.56,3.07-3.94,4.12-6.15a28,28,0,0,0-.65,6.56,6.82,6.82,0,0,0,.61,3.27A14.66,14.66,0,0,0,20,51.7a29.72,29.72,0,0,0,2.55-6.29,39.79,39.79,0,0,1-1.71,7.24,1.2,1.2,0,0,0,.86-.09,4.28,4.28,0,0,0,1.62-2.12,18.33,18.33,0,0,0,1-2.77c.11.11.16.28.32.34a7.1,7.1,0,0,0,2.21-3,15,15,0,0,0,1.08-4.19,4,4,0,0,0,3.65-.56,4,4,0,0,1,.58,1.74,2.73,2.73,0,0,0-3-.36A3.77,3.77,0,0,0,27.42,44c-.15.62-.17,1.19-.31,1.71a6.18,6.18,0,0,1-2.59,3.56.92.92,0,0,0,.68.16,6.07,6.07,0,0,1-.95,1.35s-.17.06-.11.13.28.08.41.14a4.11,4.11,0,0,1-1.69,1.58,1.81,1.81,0,0,0,.7.34,4.35,4.35,0,0,1-1.78,1.38,5.1,5.1,0,0,0,3,.81,4.55,4.55,0,0,1-2.1,2,1.08,1.08,0,0,0,.74.23,5.61,5.61,0,0,1-2.14,1.55,1.12,1.12,0,0,0,.61.18,3.21,3.21,0,0,1-2.1,1.44c.09.28.58.37,1,.41-.39.65-1.25.82-2.12,1a.93.93,0,0,0,.74.52c-1.1,1.25-3.07-.08-4.87.14-.52-1.19-3-1-3.15.43a.4.4,0,0,0-.57.47c-.65.65-.52,2.45.47,2.61,0-.83.52-1.1,1-1.46a2,2,0,0,0,1.85-.41,7.71,7.71,0,0,1,1.6.36,2.17,2.17,0,0,0-1,.36c-.22.14-.56.55-.79.59s-.58-.14-.83-.14a1.26,1.26,0,0,0-.81.34,3.5,3.5,0,0,0-.58.77,2.14,2.14,0,0,0,0,1.15.43.43,0,0,0,.09.63,1.82,1.82,0,0,0,1,1.31,2.76,2.76,0,0,0,1.49.41c-.09-.23-.32-.41-.43-.72s0-.7-.16-1.06a1.65,1.65,0,0,0,1-1.28,14,14,0,0,0,1.8-.54c.13-.06.29-.22.41-.18s-.13.21-.2.27a2.92,2.92,0,0,0-.88,1.19,1.25,1.25,0,0,0-1.44,1.44A2.1,2.1,0,0,0,15,70a.61.61,0,0,0,.36.74c.18.94,2.11,1.47,2.75.59-.41-.18-1.67-1.21-.68-1.56a1.62,1.62,0,0,0,.18-1.67,18.84,18.84,0,0,0,2.25-2.32,5.22,5.22,0,0,0,1.8,0c0,.22-.17.32-.2.54a.9.9,0,0,0,.63,1,2.47,2.47,0,0,1-.18.95c-.1.19-.32.23-.4.41.78.43,2.26.17,2.14-.93a.44.44,0,0,0,.34-.63,1.26,1.26,0,0,0,.68-1.4A1.55,1.55,0,0,0,23,64.44a3.75,3.75,0,0,1-.88.09c-.39-.08-.37-.67-.2-1a6.53,6.53,0,0,1,.72-.88C23.41,61.74,24,61,24.81,60s1.72-2.08,2.66-3a3,3,0,0,1,.43-.38s.15.19.22.27A3.09,3.09,0,0,0,30.63,58a4.09,4.09,0,0,1-.57-2,1.92,1.92,0,0,0,.93.43,7.66,7.66,0,0,1,2.19-7.12,16.75,16.75,0,0,1-2.1,8.14,2.16,2.16,0,0,0,2-1,4.89,4.89,0,0,1-.77,2.84,2.83,2.83,0,0,1-2.09,1.55c-.5,0-.79-.28-1.08-.41A2.06,2.06,0,0,0,29.75,63a2.68,2.68,0,0,0,2.73-.27,3.67,3.67,0,0,1-1.53,2.19c-.7.47-2.1.9-2.86.34-.58-.43-.46-1.5-.14-2.12a2.48,2.48,0,0,0-2.82,2.35,2.69,2.69,0,0,0,1.26,2.59,3.13,3.13,0,0,0-1.53,2.43,2.68,2.68,0,0,0,1.58,2.37,4.69,4.69,0,0,0,3.24.43A7.18,7.18,0,0,0,34,69.78a9.3,9.3,0,0,0-.14,4.37,8.27,8.27,0,0,0,1.63,3.29A13.23,13.23,0,0,0,37,74.11a8.38,8.38,0,0,0,0-4.31,9.84,9.84,0,0,0,2.07,2.3,4.86,4.86,0,0,0,3.18,1.22,3.63,3.63,0,0,0,2.93-1.44,2.7,2.7,0,0,0,.56-1.62,3,3,0,0,0-1.85-2.48,3,3,0,0,0,1.42-3.25,2.13,2.13,0,0,0-2.1-1.78,1.62,1.62,0,0,1,.18.63c.1,1.16-.86,1.68-1.82,1.74a3.31,3.31,0,0,1-3.38-2.66,2.36,2.36,0,0,0,2.75-.25,1.94,1.94,0,0,0,.2-2.34,1.72,1.72,0,0,1-1.89.49c-1.07-.49-1.5-2.07-1.69-3.38a2.52,2.52,0,0,0,2,.45,11.78,11.78,0,0,1-1-1.62A16.52,16.52,0,0,1,37.19,49a20.09,20.09,0,0,1,1.6,3,8.3,8.3,0,0,1,.81,3.74c.59-.16.81-.69,1.08-1.17a4.86,4.86,0,0,1-.09,1.62A3.8,3.8,0,0,1,40,57.27c1.35.4,2.33-.68,2.87-1.46,1.83,2.29,3.57,4.74,5.57,6.9.24.26.79.63.77,1a.57.57,0,0,1-.65.45A4.16,4.16,0,0,1,48,64a1.3,1.3,0,0,0-1.17,2.3,1.54,1.54,0,0,0,0,.56,1.7,1.7,0,0,0,2.75.81c-.53-.08-.75-.46-.9-.92a1.49,1.49,0,0,0,.14-.63c.3,0,.42-.28.59-.34a2.16,2.16,0,0,0,1.6-.38c.67.63,1.3,1.3,2,1.94-.07.13.06.24.09.34a1.59,1.59,0,0,0,.74,1.69c-.1.34.17.5.36.63a5.93,5.93,0,0,1-.92.79,1.83,1.83,0,0,0,2.32-.54c0-.09,0-.22.07-.29s.16-.1.2-.18,0-.17,0-.25.14-.28,0-.47a1.43,1.43,0,0,0-1.08-2.32c-.52-.6-1.27-1.1-1.8-1.62l1.87.63c.5.16,1.48.38,1.76.77a1.94,1.94,0,0,1,.14.41c.11.27.26.37.61.5a3.59,3.59,0,0,1-.2,1.56c1.08.08,1.59-.73,1.76-1.6a.45.45,0,0,0,.2-.32c0-.17-.14-.34-.13-.38s.11-.12.13-.16a1.23,1.23,0,0,0,0-1.26,1.89,1.89,0,0,0-2.55-.5,7.45,7.45,0,0,0-1.76-.95,3.75,3.75,0,0,1,1.87-.47,1.45,1.45,0,0,0,1.58.07c.05.32.52.41.83.27.38.19.52.63.74,1,.76-.49.67-2.42-.27-2.64a.49.49,0,0,0-.54-.36c-.27-1-2.18-.89-2.43,0a15.22,15.22,0,0,0-2.91.54,7.11,7.11,0,0,1-.86.29,1.49,1.49,0,0,1-1.28-.68.81.81,0,0,0,.61-.56,2.1,2.1,0,0,1-1.76-.74c0-.11.12-.25.18-.38a3,3,0,0,1-1.67-1.58c.14-.1.3-.19.32-.43A2.86,2.86,0,0,1,47.37,57a.87.87,0,0,0,.45-.45,5.09,5.09,0,0,1-1.51-1.1A5.31,5.31,0,0,1,45.16,54a5.71,5.71,0,0,0,3.36-.35c.11-.06.24-.09.27-.19a3.55,3.55,0,0,1-2.37-1.62A1.79,1.79,0,0,0,47,51.7a3.92,3.92,0,0,1-1.55-1.62.78.78,0,0,0,.63-.25,2.21,2.21,0,0,1-1.22-1.2,1.08,1.08,0,0,0,.81-.11c-1.4-.65-1.88-2.29-2.46-4-.47-1.37-1-3.61-3-3.49a5.8,5.8,0,0,0-1.94.65,6.3,6.3,0,0,1,.88-1.47,3.79,3.79,0,0,0,3.2,0c.34,2.75,1.05,5.12,2.79,6.47a6.74,6.74,0,0,0,.86-.56,15.91,15.91,0,0,0,.7,2.89c.42,1.14,1,2.28,2.48,2.23a15.92,15.92,0,0,1-1-6.56,33.51,33.51,0,0,0,1.46,6.47,10,10,0,0,0,3,4.91,10.89,10.89,0,0,0,.92-4,24.51,24.51,0,0,0,0-4.7,27.25,27.25,0,0,0,3.31,4.73,2.8,2.8,0,0,0,1.69,1c.87,0,1.27-.55,2-.72-2.89-1.55-3.8-5.08-5.39-7.93a22.72,22.72,0,0,0,3.16,3.74,10,10,0,0,0,4.31,2.59,16.46,16.46,0,0,0-3.07-10.23,16.22,16.22,0,0,0,4.06,1.55c1.69.35,3.47,0,3.72-1.55A4.39,4.39,0,0,1,63.92,40.07ZM32.53,67a7.57,7.57,0,0,1-1.48,2,4.25,4.25,0,0,1-2.34,1.26c-1.3.14-2-.7-1.67-2A5.75,5.75,0,0,0,32.53,67v0h0Zm0,0a0,0,0,0,1,0,0Zm0,0v0S32.56,67,32.55,67ZM38,66.53A6,6,0,0,0,43.5,68a1.52,1.52,0,0,1-1.78,1.89c-1.83-.13-3.17-2.05-3.74-3.34C38,66.52,38,66.51,38,66.53Z"/><path class="cls-4" d="M35.73,12.85a3.5,3.5,0,0,0,1.67.36s-.5.17-3.11-1.19c0,0-3-1.51-2.76.64l.14,0s0-1.36,1.53-.79C34,12.22,34.93,12.56,35.73,12.85Z"/><path class="cls-5" d="M21.85,35.24c2.81,1.41,7.66,1.61,7.66,1.61a18.37,18.37,0,0,1-.79-3.63A8.8,8.8,0,0,0,29,35.49a4.84,4.84,0,0,1-1.22-.06,18.4,18.4,0,0,1-5.5-1.6"/><path class="cls-6" d="M31,12.59l.5.06a.93.93,0,0,1,1.1-1.18,11.52,11.52,0,0,1,3.12,1.21,9.37,9.37,0,0,0-3.17-1.37A1.31,1.31,0,0,0,31,12.59Z"/><path class="cls-6" d="M35.88,12s2,.57,2.82.1a1.64,1.64,0,0,0,.6-.59c.21-.38.43-.45.43-.45s.56,1.1-.92,1.42A5,5,0,0,1,35.88,12Z"/><path class="cls-6" d="M39,12.8s.82.33.45.71v.08s1,.6,1.66,0a.59.59,0,0,0,0-.82,1.84,1.84,0,0,1-.93.33A6.67,6.67,0,0,1,39,12.78"/><path class="cls-7" d="M39.58,13.88s1,1.43.52,1.72c0,0-.13.13-.42,0A6.81,6.81,0,0,1,40,20.65c-1,2.43-3.24,5-1.53,7a3.16,3.16,0,0,1,1,2.72s.89-.77-.11-3a4.86,4.86,0,0,1,0-2.79s.5-2.16.52-2.39a4.94,4.94,0,0,0,1,1.31,9,9,0,0,1-.11-2.19c.11-1,.59-4.49.08-5.82A2.9,2.9,0,0,0,39.58,13.88Z"/><path class="cls-7" d="M40,23a4.22,4.22,0,0,0,.61.7s-.39,3.29-.31,3.58a1.6,1.6,0,0,0,1.24,1.21,1.32,1.32,0,0,1-1.78-.69C39.2,26.53,39.61,23.92,40,23Z"/><path class="cls-6" d="M40.11,28.69a8.37,8.37,0,0,1-.09,1,3.76,3.76,0,0,1,.77,1.92,5.35,5.35,0,0,0,.44,1.72,9.55,9.55,0,0,0-.91-4.13l0-.14s.55,0,.62-.06A2.52,2.52,0,0,1,40.11,28.69Z"/><path class="cls-6" d="M31.78,12.73l.35.11s0-.46.32-.54.41,0,.32.11a1.91,1.91,0,0,0-.2.27l.51.34s0-.49.13-.59c0,0,.06-.14.56,0s2.62,1,2.62,1-.12.88-1.41.75a1.78,1.78,0,0,0,2.45-.56s1.35.06,1.52-.34a11.56,11.56,0,0,1-2-.08A30.5,30.5,0,0,1,33.29,12C32.14,11.59,31.79,12.25,31.78,12.73Z"/><path class="cls-6" d="M33.4,12.4A1,1,0,0,0,34,13.68c.89.39,1.14.28,1.14.28l-.54-.28a.34.34,0,0,1-.36-.07c-.22-.16-.42-.45-.21-1A5.76,5.76,0,0,0,33.4,12.4Z"/><path class="cls-8" d="M28.21,17.07a4.56,4.56,0,0,0,2-.07c1.15-.29,1.81-.74,2.56-.87a3.23,3.23,0,0,1,2.54.45s.2.12.17.22,0,.18-.3.1a4.51,4.51,0,0,0-2.28-.22,10.86,10.86,0,0,0-1.12.25C31.38,17.07,29.41,17.69,28.21,17.07Z"/><path class="cls-9" d="M34.15,23.21a4.48,4.48,0,0,0,2.38-2.32s.11-.17.23-.06.26.21.35.16A3.8,3.8,0,0,1,34.15,23.21Z"/><path class="cls-9" d="M33.15,23.73A2.76,2.76,0,0,0,36,23S33.67,25.74,33.15,23.73Z"/><path class="cls-9" d="M34.29,25a3.82,3.82,0,0,0,1.4-.85s-1.42,3.13-4,4.08c0,0-1.86.71-2.28-.77a1.9,1.9,0,0,0,2.16.14A7.73,7.73,0,0,0,34.29,25Z"/><path class="cls-6" d="M30,28.82a3.61,3.61,0,0,0,2.1-.16,6.12,6.12,0,0,0,1.2-.77,19.57,19.57,0,0,0,1.5-1.69l-.56,1.42a8.33,8.33,0,0,1-2.3,1.27,3.36,3.36,0,0,0-1.35,1.33,13.89,13.89,0,0,1-.79,1.24s.35-.8.47-1.14A4,4,0,0,1,31,29.08,4,4,0,0,1,30,28.82Z"/><path class="cls-6" d="M34.14,28.56v.86s-.55.14-.59,1.37.21,1.62-.07,2.35a8.81,8.81,0,0,0-.13-1.35,3.94,3.94,0,0,1-.14-2A2.62,2.62,0,0,1,34.14,28.56Z"/><path class="cls-6" d="M31.82,29.56a6.44,6.44,0,0,0-.32,1.82,1.63,1.63,0,0,0,.32.76c.22.19,1.26,1,1.4,1.56a6.13,6.13,0,0,0-1.51-1.46s-.29-.27-.31-.44a1.72,1.72,0,0,1-.91.8,6.5,6.5,0,0,0-1.21.66.94.94,0,0,1-.09-.4s-.23-.14-.47.16L28.61,33a1.18,1.18,0,0,1,.79-.39c.56-.08,1.46-.2,1.76-.68a2.24,2.24,0,0,0,.28-.8A4.78,4.78,0,0,1,31.82,29.56Z"/><path class="cls-7" d="M39,19a.28.28,0,0,0,.15-.19c0-.13.09-.3.14-.3A8.12,8.12,0,0,1,39,21a9,9,0,0,1-1.27,2.35,26.57,26.57,0,0,0-1.61,3c-.1.22-.83,2.42-1,2.7,0,0,.59-2.34.86-3.06s1.5-2.91,1.63-3.15,1.07-2.06,1.16-2.34A5.57,5.57,0,0,0,39,19Z"/><path class="cls-7" d="M36.85,26.57a5.77,5.77,0,0,0,.26,2.06s-.82,1.06-1,1.28-1,.87-1.75.41a2.41,2.41,0,0,0,.79-.7C35.33,29.21,36.21,26.7,36.85,26.57Z"/><path class="cls-9" d="M37.68,24.94s-.54,1.7-.18,2.4a4,4,0,0,0,1.09,1.2s.59.63.55.73a3,3,0,0,1-1.49-.81C37.29,28,36.34,26.89,37.68,24.94Z"/><path class="cls-9" d="M38.26,15.39a3.88,3.88,0,0,1,1.82,3,7.81,7.81,0,0,1-1.15,4.1,21.52,21.52,0,0,1-1.57,2.15s2.09-3.35,2.24-4.77A7.74,7.74,0,0,0,38.26,15.39Z"/><path class="cls-6" d="M37.45,29.12s.92.52,1,.54a2.64,2.64,0,0,1,.61.42l.16.27L39.1,30l-.27-.27L37.54,29s-.34-.29-.4-.28a2.11,2.11,0,0,0-.38,1.59,5.93,5.93,0,0,1,.72,2,5.58,5.58,0,0,1-.09,1.15,3.61,3.61,0,0,0,.27-1.8C37.48,31,36.89,29.87,37.45,29.12Z"/><path class="cls-6" d="M39.25,30.54a5.39,5.39,0,0,0,.36,1,2.88,2.88,0,0,1-1.21,1.62c-1,.66-1.14,1-1.14,1s-.13-.34.87-1.08A3.29,3.29,0,0,0,39.25,30.54Z"/><path class="cls-9" d="M32.16,13.09a3.93,3.93,0,0,1,1.68,1.56,3.65,3.65,0,0,0-.62-.07A3.78,3.78,0,0,0,32.16,13.09Z"/><path class="cls-6" d="M35,30.58h.11a1.71,1.71,0,0,0,.5,1.12c.45.3,1.54,1.39,1.54,2.05a2.28,2.28,0,0,0-.75-1.08,12.8,12.8,0,0,1-1-.83,3,3,0,0,1-1,1.24,3.2,3.2,0,0,0-1.07.94s.07-.41.82-1A2.87,2.87,0,0,0,35,30.58Z"/><path class="cls-10" d="M37,15.21a4.2,4.2,0,0,1,1.71,2.49,6.21,6.21,0,0,1-.47,3.22c-.45,1.16-2.14,4.39-2.14,4.39a20.43,20.43,0,0,0-1.53,4v0c-.2,1.34-.16-1.83,1.58-4.81s2.2-4.48,2-5.62A9.14,9.14,0,0,0,37,15.21Z"/><path class="cls-6" d="M30.4,38.33a12.54,12.54,0,0,1-.71-1.22A.67.67,0,0,1,30,36.7c.14-.1,0,.34.27.38a1.41,1.41,0,0,1,.26-.56c.19-.21,1.39-1.13,1.2-1.87l-.43-.36a1.74,1.74,0,0,1-.54,1.49c-.68.56-1.14,1-1.12,1.17A4.16,4.16,0,0,0,30.4,38.33Z"/><path class="cls-6" d="M31.88,34.76a3.26,3.26,0,0,0,3.42-.48l.39.34S33.6,35.89,31.88,34.76Z"/><path class="cls-6" d="M35.74,34.65s1.94.86,3.16-.42l.17.45a3.69,3.69,0,0,1-3.39,0Z"/><path class="cls-6" d="M39.71,32s1.21,1.53.89,2.36-.81.43-1.05.08a2.43,2.43,0,0,1-.16-2,2,2,0,0,0,.27,2.3c1,1.26.77,1.62.77,1.62a5.57,5.57,0,0,0,.65-2.56A4.37,4.37,0,0,0,39.71,32Z"/><path class="cls-6" d="M31.26,36.45a2.35,2.35,0,0,0,2.07-.69l.34.33A3.34,3.34,0,0,1,31.26,36.45Z"/><path class="cls-6" d="M33.75,36.15A3.5,3.5,0,0,0,37.18,36l.35.22a4,4,0,0,1-3.84-.06Z"/><path class="cls-6" d="M37.6,36.27a2.59,2.59,0,0,0,2.42-.4s.19.22.19.35a3.28,3.28,0,0,1-2.68.11Z"/><path class="cls-6" d="M31.5,37.44a1.65,1.65,0,0,1-.76.8s-.25.25-.18.36.33.46.33.46a1,1,0,0,1,.21-.6C31.33,38.13,31.73,37.91,31.5,37.44Z"/><path class="cls-6" d="M35.35,37.46s-1.2,1.41-3.79,0l0,.11a4.81,4.81,0,0,0,2.47.73,2.71,2.71,0,0,0,1.67-.6S35.4,37.58,35.35,37.46Z"/><path class="cls-6" d="M39.08,37.08a1.21,1.21,0,0,0,.17.32,4.34,4.34,0,0,1-3.51.35l0-.06A3.48,3.48,0,0,0,39.08,37.08Z"/><path class="cls-6" d="M40.24,36.31a3,3,0,0,1,.07,1.19,7.57,7.57,0,0,0-.09.78s-.88-.38-1-.8a.8.8,0,0,1,.38-.38,1.57,1.57,0,0,0,.56-.79C40.21,36.22,40.24,36.31,40.24,36.31Z"/><path class="cls-6" d="M39.25,38a2.07,2.07,0,0,0,1.61,1,2.61,2.61,0,0,0,1.82-1l.12.83a2.92,2.92,0,0,1-3.05.47,6.4,6.4,0,0,0-.14,1s-1.14-.28-1.41-1.1a.66.66,0,0,0,.4-.23C38.75,38.71,38.89,38,39.25,38Z"/><path class="cls-6" d="M39,40.25s-.61-.43-.72-.55-.47.39-.39.67a1.51,1.51,0,0,0,.47.89Z"/><path class="cls-6" d="M37.75,38.77l.22.45a5.56,5.56,0,0,1-5.25,0v-.09a4.42,4.42,0,0,0,2.52.62A5.87,5.87,0,0,0,37.75,38.77Z"/><path class="cls-6" d="M32.46,38.9l.22.24a2.57,2.57,0,0,1-.93,1.2l-.31-.41A2.17,2.17,0,0,0,32.46,38.9Z"/><path class="cls-6" d="M32.13,41.42a4.41,4.41,0,0,0,.62-.72,1.64,1.64,0,0,0,.35.3h0c.09,0-.31.17-.42.35a1.9,1.9,0,0,1-.46.54Z"/><path class="cls-6" d="M33.18,41a1.72,1.72,0,0,0,1.3.11c.85-.2,1-.5,1-.5l.29.27A2.61,2.61,0,0,1,33.18,41Z"/><path class="cls-6" d="M37.85,40.88l.27.33A2.72,2.72,0,0,1,36.22,41,2.2,2.2,0,0,0,37.85,40.88Z"/><path class="cls-6" d="M37.25,41.9l.31.34a12,12,0,0,0-.62,2.46c-.1,1.07-.7,4.49-.7,4.49a31.69,31.69,0,0,0,.05-3.78,10.64,10.64,0,0,1-.06-2.1.55.55,0,0,0-.41-.59c-.24-.08-.58,0-.74-.23A3.48,3.48,0,0,0,37.25,41.9Z"/><path class="cls-6" d="M37.86,42.4l0,.06a14.61,14.61,0,0,0-.55,3c-.07,1.41-.22,2.67-.22,2.67a17.85,17.85,0,0,1-.78,4.27,5.85,5.85,0,0,1-.94,1.5l0-1.14s.94-.37,1.39-3.08c0,0,.45-3.78.47-4A13.47,13.47,0,0,1,37.86,42.4Z"/><path class="cls-9" d="M33.48,42a1.88,1.88,0,0,0,.73.39s-.47.06-.43.21a11.64,11.64,0,0,1,.4,3c0,1.69.17,3.38.18,3.59a8.53,8.53,0,0,0,.47,1.93c.16.18-.4.14-.68-2.08s-.16-3.23-.33-4a8.05,8.05,0,0,0-.8-2.66Z"/><path class="cls-6" d="M32.39,42.89s.81,4.46.82,6a15.75,15.75,0,0,0-2,2.83,9.57,9.57,0,0,0-.54,4.14s-1.33-.29-1.42-2.44a6.42,6.42,0,0,1,.14-1.71A1.58,1.58,0,0,0,31,51.12a10.14,10.14,0,0,0,1.47-2.27,6.16,6.16,0,0,0,.35-2.48C32.74,46.06,32.39,42.89,32.39,42.89Z"/><path class="cls-6" d="M33.57,48.86s.29,2.94,1.2,4a9.8,9.8,0,0,1-.71,1.79s.11-.48-.15-.52-1.7,2.61-2.46,3.1a14.21,14.21,0,0,0,1.86-2.9,8.54,8.54,0,0,0,.37-2.71C33.64,50.48,33.57,48.86,33.57,48.86Z"/><path class="cls-6" d="M35.88,53.44s-.38,4.8-.35,6L35.4,54A6.56,6.56,0,0,0,35.88,53.44Z"/><path class="cls-6" d="M36.51,55.06a7.9,7.9,0,0,0,1,1.87l-.07,0s-.23-.26-.29,0a22.48,22.48,0,0,1-1.58,5.46l0-1.06a4.16,4.16,0,0,1-1-2.24,8.06,8.06,0,0,0,.94,2,13.84,13.84,0,0,0,1-3A8.94,8.94,0,0,0,36.51,55.06Z"/><path class="cls-6" d="M36.46,60.51l.35.49a18.78,18.78,0,0,1,.53,4.91c-.19,2-.31,3.44-1.73,5.13v-.87a11.51,11.51,0,0,1-1.23-5.44s.3,3.76,1.24,5.22a5.73,5.73,0,0,0,1.14-2.75,16.44,16.44,0,0,0-.44-6.45Z"/><path class="cls-6" d="M36.46,60.51l.35.49a18.78,18.78,0,0,1,.53,4.91c-.19,2-.31,3.44-1.73,5.13v-.87a11.51,11.51,0,0,1-1.23-5.44s.3,3.76,1.24,5.22a5.73,5.73,0,0,0,1.14-2.75,16.44,16.44,0,0,0-.44-6.45Z"/><path class="cls-9" d="M35.13,61.82l.41.7.33-.54-.22,6.49-.26-3.38S35.15,62.29,35.13,61.82Z"/><path class="cls-9" d="M35.12,70.66s.27.46.45.49.52-.62.52-.62l-.55,4.27Z"/><path class="cls-9" d="M37.18,48.92a19.94,19.94,0,0,1-.43,2.94s.34,5.08,2.51,5.18h0a9.56,9.56,0,0,1-1.47-3.11A17.56,17.56,0,0,1,37.18,48.92Z"/><path class="cls-9" d="M36.78,59.72a2.81,2.81,0,0,0,.42,1.22A4.17,4.17,0,0,0,38.66,62a2,2,0,0,1-1.27-.81,4.21,4.21,0,0,1-.76-1.14Z"/><path class="cls-9" d="M37.43,57.44a7.9,7.9,0,0,0,.74,2.16c.42.59,1.17,1.61,2.11,1.63,0,0-1.44.63-2.76-1.51L37,59S37.26,57.3,37.43,57.44Z"/><path class="cls-9" d="M33.94,55.17s0,2.49.14,3,.4,1.81.46,2a2.45,2.45,0,0,1-1.77,1.2s1.36-.8,1.41-1.84v-.47l-.46.86a2.68,2.68,0,0,1-2.18,1.51,2.54,2.54,0,0,0,1.84-1.33A9.37,9.37,0,0,0,34,58.19l-.12-1.37s-.22,2.68-1.68,3.26a4.45,4.45,0,0,0,1.16-2.13C33.52,56.8,33.94,55.17,33.94,55.17Z"/><path class="cls-6" d="M34.61,60.42l.14.35a6,6,0,0,1-2.19,1.73c-1.09.35-2.72.48-3.12-1.47a2,2,0,0,0,2.64,1.35A5.84,5.84,0,0,0,34.61,60.42Z"/><path class="cls-9" d="M34.42,62a16.18,16.18,0,0,0-.55,2.57A6.06,6.06,0,0,1,32.69,66s.89-.9.75-1.29c0,0-.15,0-.53.47s-2.24,1.93-3.48,1.68a4.48,4.48,0,0,0,3.11-1.8A12.74,12.74,0,0,0,34.42,62Z"/><path class="cls-9" d="M27.65,63.26a2.12,2.12,0,0,0-.54,2.68s-.82-.35-.35-1.77c0,0,.08-.43-.38,0s-1,2.15.89,3.56a2.43,2.43,0,0,1-1.55-1.82A2.26,2.26,0,0,1,27.65,63.26Z"/><path class="cls-6" d="M33.85,64.76s0,.77,0,.87a8.61,8.61,0,0,1-3.29,2.29,4.88,4.88,0,0,1-2.44.09,5.5,5.5,0,0,0,3.76-1A10.14,10.14,0,0,0,33.85,64.76Z"/><path class="cls-9" d="M33.87,66.08s.2,1.66.25,1.86a10.76,10.76,0,0,1-2.57,3.36s2.12-2.17,2.28-3.29c0,0-2,3.49-4.68,3.62a6.07,6.07,0,0,0,3.93-3A8.29,8.29,0,0,0,33.87,66.08Z"/><path class="cls-9" d="M26.67,68.23s-1.21,2.8,1.74,3.39A2.14,2.14,0,0,1,27,71.36c-.64-.42-1.07.33-.27.88a2.12,2.12,0,0,1-1.35-2A2.27,2.27,0,0,1,26.67,68.23Z"/><path class="cls-6" d="M34.18,68.13l.23.7a11.07,11.07,0,0,1-3.19,3.69,5.3,5.3,0,0,1-3.78.6s1.84.22,1.28-.14a3.18,3.18,0,0,0-.58-.15,11,11,0,0,0,1.26-.12,5.62,5.62,0,0,0,2.54-1.26A11.18,11.18,0,0,0,34.18,68.13Z"/><path class="cls-9" d="M36.94,61.14a3.9,3.9,0,0,0,1.16,1.26,3.86,3.86,0,0,0,1.64,3.23,3.4,3.4,0,0,0,3.3.66,3.31,3.31,0,0,1-3.7-.62A7.21,7.21,0,0,1,36.94,61.14Z"/><path class="cls-9" d="M43.7,63s3,2-.64,4.12A2.46,2.46,0,0,0,43.7,63Z"/><path class="cls-6" d="M44.69,63.6a2.65,2.65,0,0,1-1,3.79,3.34,3.34,0,0,1-2.32.34,2.88,2.88,0,0,0,2.83-.4A2.62,2.62,0,0,0,44.69,63.6Z"/><path class="cls-6" d="M37.41,64.68A5,5,0,0,0,40,67a8.25,8.25,0,0,0,1.89.37,4.85,4.85,0,0,1-3.18-.91A7.89,7.89,0,0,1,37.42,65Z"/><path class="cls-9" d="M37.38,66.61a9,9,0,0,0,3.34,4.58,8.25,8.25,0,0,1-3.37-4.07Z"/><path class="cls-6" d="M44.13,68.29s.92,1.6-.09,2.64a2.42,2.42,0,0,1-2.25.71s1.8.4,2.62-.71A2,2,0,0,0,44.13,68.29Z"/><path class="cls-6" d="M45.2,69.11a2.61,2.61,0,0,1-1.69,3.42,4.06,4.06,0,0,1-2.71,0l-.71-.09a3.81,3.81,0,0,0,3.1.53C45.16,72.56,46.17,70.36,45.2,69.11Z"/><path class="cls-6" d="M25.19,49.43s2.68-.29,3.33-1.92c0,0,1.86.17,3.76-2.57a6.93,6.93,0,0,1-3.93,3.28S26.54,50,24.89,50Z"/><path class="cls-6" d="M24.54,51s1.93.32,3.9-1.85a4.25,4.25,0,0,0,3.07-1.32,4.41,4.41,0,0,1-3.34,1.82s-1.94,2-4,1.84Z"/><path class="cls-6" d="M28.23,51a4,4,0,0,0,2.88-1.15,3.94,3.94,0,0,1-3.05,1.61,5.16,5.16,0,0,1-4.89,2l.38-.44A4.49,4.49,0,0,0,28.23,51Z"/><path class="cls-9" d="M28,52.44s.19.77,1.25-.69c0,0-1.46,2.74.5,4.14,0,0-1.53.27-.36,1.36C29.44,57.24,26.66,56.2,28,52.44Z"/><path class="cls-6" d="M27.66,53.13a4.41,4.41,0,0,1-3.76,1.44s1,.25,0,.36C23.9,54.93,26.6,55.41,27.66,53.13Z"/><path class="cls-9" d="M25.55,55.45l.1,1.23-.54.21A3.31,3.31,0,0,0,25.55,55.45Z"/><path class="cls-6" d="M27.31,53.86a4,4,0,0,0,.41,2.28l-1.54.67-.36-.13a9.3,9.3,0,0,0,1.38-2.59Z"/><path class="cls-9" d="M26.41,56.88,26,56.8s-2.35,3-3,3.65S20.39,63.26,21.36,64a1.85,1.85,0,0,1,.14-1.29,21.62,21.62,0,0,1,1.91-2.49C24,59.57,26.29,57.16,26.41,56.88Z"/><path class="cls-6" d="M20.43,63.41s-.15.62,0,.68.47.14.47.25-.28,0-.57.39-.45.64-.75.64a5.53,5.53,0,0,1-1.09,1.35c-.54.4-1.14,1-1.15,1.43s.54,1.34-.8,2a1.18,1.18,0,0,1-1.51-.68s1.5.33,1.2-1.63a2.12,2.12,0,0,1,.87.18,6.35,6.35,0,0,1,1-1.54A19.3,19.3,0,0,0,20.43,63.41Z"/><path class="cls-9" d="M23.16,67.4a1.05,1.05,0,0,0,.48-.11c.14-.11.32-.08.28.09S23.7,67.91,23.16,67.4Z"/><path class="cls-6" d="M22.78,67.19a.9.9,0,0,0,.12-1.35,1.11,1.11,0,0,0-.59-.35c-.35-.1-.61-.35-.08-.6a1.47,1.47,0,0,1,2.22,1C24.67,67.34,22.78,67.19,22.78,67.19Z"/><path class="cls-9" d="M19.7,63.41a7.4,7.4,0,0,1-5.07,3.41,1.46,1.46,0,0,1-2.24,1s-1.27-.85.72-1.08c0,0,.77,0,.89-.52a5.15,5.15,0,0,0,2.38-.23,6.29,6.29,0,0,0,2-1.41C18.76,64.26,19.62,63.43,19.7,63.41Z"/><path class="cls-9" d="M12.18,68a1.28,1.28,0,0,0,.92.26A1.88,1.88,0,0,1,12,68.21S12.18,68.08,12.18,68Z"/><path class="cls-9" d="M13.94,62.28s-.41.87-.95,1-1.26-.09-1.06.49a1.1,1.1,0,0,0,1.29.78,1.67,1.67,0,0,0,.72-.46,2,2,0,0,1,1.17-.59,1.7,1.7,0,0,1-.49.33c-.32.14,0,.35.12.38a2.19,2.19,0,0,0,1.63.09c.73-.34,1.62-1,1.82-1a12.73,12.73,0,0,1-1.82-.12,16.19,16.19,0,0,0-1.69-.34c-.34,0-.24-.07-.32-.15S14.1,62.2,13.94,62.28Z"/><path class="cls-9" d="M11.51,63.45a1.68,1.68,0,0,0,.72,1.06,3,3,0,0,1-.89-.44s-.11-.08.09-.06C11.42,64,11.4,63.41,11.51,63.45Z"/><path class="cls-6" d="M23.46,57.34a5.37,5.37,0,0,0,2-.45,7,7,0,0,1-2.6,1S23.34,57.49,23.46,57.34Z"/><path class="cls-6" d="M21.93,59.07A5.46,5.46,0,0,0,24,58.73a4,4,0,0,1-2.5.85A5.42,5.42,0,0,0,21.93,59.07Z"/><path class="cls-6" d="M20.83,60.92a5.47,5.47,0,0,0,1.86-.42,3.55,3.55,0,0,1-2.22.83A2.53,2.53,0,0,0,20.83,60.92Z"/><path class="cls-6" d="M18.7,61.91a7.07,7.07,0,0,0,2.61.17,3.86,3.86,0,0,1-1.87.35A.94.94,0,0,1,18.7,61.91Z"/><path class="cls-6" d="M40.13,46.1a4.42,4.42,0,0,0,2.52,1.11,4,4,0,0,0,2.17,1.42l.27.45a4.72,4.72,0,0,1-2.27-1.44S40.59,47.19,40.13,46.1Z"/><path class="cls-6" d="M39.95,47.56a3.89,3.89,0,0,0,2.28,1,4.53,4.53,0,0,0,2.16,1.38s1,.18,1,.18l.24.46a7.69,7.69,0,0,1-3.06-1.48A5.58,5.58,0,0,1,39.95,47.56Z"/><path class="cls-6" d="M40.38,49.52s1.53.95,2.31.73a2.63,2.63,0,0,0,1.21,1.1,5.71,5.71,0,0,0,2.52.47l.33.48a8.51,8.51,0,0,1-2.32-.61,15.66,15.66,0,0,1-1.64-.9A14.19,14.19,0,0,1,40.38,49.52Z"/><path class="cls-6" d="M48.83,53.44s-1,1-3.67.54c0,0,1.21-.09.44-.33a6,6,0,0,1-1.9-.73,6.38,6.38,0,0,0,2.55.61c1.39,0,1.79-.34,1.79-.34A5.65,5.65,0,0,0,48.83,53.44Z"/><path class="cls-6" d="M40.68,54.49a8,8,0,0,0,.84-2.63,4.65,4.65,0,0,1-.8,3.58Z"/><path class="cls-6" d="M42.53,52.33A4.3,4.3,0,0,0,45.05,54a2.1,2.1,0,0,1,.21,1.58l-1.8-2.07a5.41,5.41,0,0,1-1,2.6c-.82.89-1.5,1.26-2.23,1.12a2.78,2.78,0,0,0,2-1.3A3.84,3.84,0,0,0,42.53,52.33Z"/><path class="cls-6" d="M43.22,54.95a2.88,2.88,0,0,0,1.85.72.87.87,0,0,1-.81.16,3.25,3.25,0,0,0,3.56.69s-.43,1.32-2.93,0a3.09,3.09,0,0,0,1.46,1.41,3.62,3.62,0,0,0,2.5.17l.29.1s0,.4-.35.43a4.76,4.76,0,0,1-2.92-.79s2,3,4.36,2.26l.26.1-.18.38a4.65,4.65,0,0,1-3-1.08,5.9,5.9,0,0,0,2.18,2,2.76,2.76,0,0,0,2.15-.14h.43s-.09.77-1.43.58S49,61.41,49,61.41A5.42,5.42,0,0,1,49.86,63a11.29,11.29,0,0,0-1.19-1.72C48,60.54,46.76,59,46.76,59s-2-2.37-2.21-2.63L43.19,55Z"/><path class="cls-9" d="M54.07,62.44a5.25,5.25,0,0,1,1.44-.23,2.27,2.27,0,0,0,1.1-.39c.33-.31.29-.78,1.36-.73a1.19,1.19,0,0,1,.91.67s.38,0,.5.25a2.32,2.32,0,0,0-.17.76c0,.45-.1,1-.63.86,0,0,.14-.34-.1-.25s-.25,0-.23-.19a.88.88,0,0,1-1,.32.44.44,0,0,0,.12-.25s.71-.12.63-.73a.66.66,0,0,0-.91-.53c-.22.09-.53.64-.84.64S54.47,62.42,54.07,62.44Z"/><path class="cls-9" d="M56.77,66.61a1.29,1.29,0,0,0,1.25.52c.92-.06.86-.36.79-.41s.73-.77,0-1.49a1.85,1.85,0,0,0-2.38-.34s0,.08-.24-.1a12.51,12.51,0,0,0-2.65-1.16s2.41.9,2.53,1.32-.79,0-.79,0a10.53,10.53,0,0,0-2-.79,17.4,17.4,0,0,1,2.6,1.32s.42.31.57.22,1-.71,1.16,0A.75.75,0,0,1,56.77,66.61Z"/><path class="cls-9" d="M53.19,65.45a.35.35,0,0,0,.09.19c.08.09.87.66.76,1.34,0,0,.37-.48.47.1,0,0,1.22,1-.31,2,0,0,.44.16.37.46a.42.42,0,0,1-.42.3s.15.24.6.13.78-.17.79-.08a.29.29,0,0,0,.17-.33.38.38,0,0,0,0-.48,1.86,1.86,0,0,0,.2-1.49,1.75,1.75,0,0,0-1.25-.81Z"/><path class="cls-9" d="M47.66,66.9a1.83,1.83,0,0,0,.35-.12,1.45,1.45,0,0,1,.46-.11s.17-.52-.09-.38A4.32,4.32,0,0,0,47.66,66.9Z"/><path class="cls-9" d="M49,65.43a1.42,1.42,0,0,0,2-1.43s-.27,1.45-2.13.82c0,0-1.43-.59-1.57.42,0,0,0,.2.25.38s-.13.7-.48.63C47.15,66.26,48.68,66.69,49,65.43Z"/><path class="cls-11" d="M42.89,38.71s1.44.57,1-.11v-.1s1,.29,2.2-1.08a2.06,2.06,0,0,1,.07.52,2,2,0,0,1-1,.89A9.27,9.27,0,0,0,46,42a8.46,8.46,0,0,0,1.44,1.86,4.58,4.58,0,0,1-1.4-1.55A9.92,9.92,0,0,1,44.92,39L44.5,39a6.35,6.35,0,0,0,.28,1.37L45,45l-1-6a3.17,3.17,0,0,1-1.12-.28Z"/><path class="cls-6" d="M45.16,46.72l-.05-.89s1-.32,1.37-2.12l1.33,1.14.38-.3a45.81,45.81,0,0,0,.41,4.93,8.62,8.62,0,0,0,.61,1.8s-1.64-.37-1.9-3.95L47,44.47S46.44,46.27,45.16,46.72Z"/><polygon class="cls-9" points="46.47 38.28 47.29 38.38 47.59 42.75 46.47 38.28"/><path class="cls-11" d="M47.72,43.86l.07.75a5.92,5.92,0,0,0,1.69-4.7L52.3,53.07,50.3,40a7.52,7.52,0,0,1-1.57-2.14l-.12.12S49.88,41.42,47.72,43.86Z"/><path class="cls-11" d="M51.62,41l1,.42s2.51,9.87.09,14.7L52.6,55s-2.72-1.36-4-11.15l0-.14s1.13,9.09,3.83,11c0,0,1.86-4.23-.28-13.24A1.73,1.73,0,0,0,51.62,41Z"/><path class="cls-9" d="M52.77,41.44l1.36.36s.69,1.94.8,2.14,1,1.82,1.36,2.58c0,0,1.54,4.25,4.36,5.88,0,0-1.92.76-3.9-2.48s-3.45-6.29-3.45-6.29Z"/><path class="cls-11" d="M52.38,17.35a6.47,6.47,0,0,0-3.84,2.9,4.76,4.76,0,0,1,1.13.15l2.83-2.92-2.33,3.15a3.73,3.73,0,0,1,1,1.08,2.91,2.91,0,0,1,2.39.64A2.28,2.28,0,0,1,54.18,25a2.79,2.79,0,0,1,.89,2.55c-.34,1.49-1.15,1.77-1.15,1.77A4.06,4.06,0,0,1,54.13,32a2.35,2.35,0,0,1-1.21,1.42s-.22,1.89-1.06,2.5a3.87,3.87,0,0,1-2.23.74S48.45,39,46.16,38.09l0-.16s1.18.49,1.2.12c0,0,.06-.19-.61-.2,0,0-.46,0-.58-.26a2.37,2.37,0,0,0,3.1-1.48,3,3,0,0,0,2.5-1,2.65,2.65,0,0,0,.56-2.1,2.14,2.14,0,0,0,1.38-1.66,3.65,3.65,0,0,0-.48-2.2,2.25,2.25,0,0,0,1.28-2.45,2.21,2.21,0,0,0-1-1.56,2.06,2.06,0,0,0-.24-2.35,2.84,2.84,0,0,0-2.51-.62,2.16,2.16,0,0,0-2.09-1.44s.94-.18.38-.36a3.15,3.15,0,0,0-1,0l.32-.22A6.82,6.82,0,0,1,52.38,17.35Z"/><path class="cls-11" d="M52.38,17.35a6.47,6.47,0,0,0-3.84,2.9,4.76,4.76,0,0,1,1.13.15l2.83-2.92-2.33,3.15a3.73,3.73,0,0,1,1,1.08,2.91,2.91,0,0,1,2.39.64A2.28,2.28,0,0,1,54.18,25a2.79,2.79,0,0,1,.89,2.55c-.34,1.49-1.15,1.77-1.15,1.77A4.06,4.06,0,0,1,54.13,32a2.35,2.35,0,0,1-1.21,1.42s-.22,1.89-1.06,2.5a3.87,3.87,0,0,1-2.23.74S48.45,39,46.16,38.09l0-.16s1.18.49,1.2.12c0,0,.06-.19-.61-.2,0,0-.46,0-.58-.26a2.37,2.37,0,0,0,3.1-1.48,3,3,0,0,0,2.5-1,2.65,2.65,0,0,0,.56-2.1,2.14,2.14,0,0,0,1.38-1.66,3.65,3.65,0,0,0-.48-2.2,2.25,2.25,0,0,0,1.28-2.45,2.21,2.21,0,0,0-1-1.56,2.06,2.06,0,0,0-.24-2.35,2.84,2.84,0,0,0-2.51-.62,2.16,2.16,0,0,0-2.09-1.44s.94-.18.38-.36a3.15,3.15,0,0,0-1,0l.32-.22A6.82,6.82,0,0,1,52.38,17.35Z"/><path class="cls-11" d="M53,16.84a5.21,5.21,0,0,1-.21,3.25,10.75,10.75,0,0,1,2.3-.77,7.26,7.26,0,0,0-3.8,2.31l-.07,0a5.14,5.14,0,0,0,1.36-4.2Z"/><polygon class="cls-9" points="49.94 36.7 53.24 40.46 50.63 36.6 49.94 36.7"/><path class="cls-11" d="M52.31,35.53a5.44,5.44,0,0,0,3.74,2.14,5.19,5.19,0,0,1-1.45-.22L61.38,48.3,53.73,37.22a9.62,9.62,0,0,1,.45,4.38l-.61-.79a6.62,6.62,0,0,0-1.36-5.14Z"/><path class="cls-11" d="M57,37.71a4.93,4.93,0,0,0,.72-.06s2.11,3.12,2.74,4.26a16.78,16.78,0,0,1,2.17,5.81,9.7,9.7,0,0,1,.1,3.05l-.47-.9s-2.79.06-7.46-7.27c0,0,4.6,6.93,7.37,7C62.11,49.62,63.19,46.14,57,37.71Z"/><path class="cls-11" d="M53.85,22.44l-.38-.31,3.24-2.8a6.06,6.06,0,0,1-2.37,5.38,2.93,2.93,0,0,0,.09-.61A5.57,5.57,0,0,0,56.13,20Z"/><path class="cls-11" d="M58.45,37.29l-.71-.52s0-2.47-3.57-4.67l0-.14s4.46.68,5.73-1.57c0,0,5.49.28,6.76-2.16h.68s-.75,1.81-4.51,2.42l-2.37.09a5.07,5.07,0,0,1-3.83,1.76l9.81,4.58L56.41,33.16A6.66,6.66,0,0,1,58.45,37.29Z"/><path class="cls-11" d="M58.45,37.29l-.71-.52s0-2.47-3.57-4.67l0-.14s4.46.68,5.73-1.57c0,0,5.48.24,6.75-2.2h.73s-.73,1.87-4.48,2.48l-2.43.08a5.07,5.07,0,0,1-3.83,1.76l9.81,4.58L56.41,33.16A6.66,6.66,0,0,1,58.45,37.29Z"/><path class="cls-11" d="M56.91,27.76a12.25,12.25,0,0,1,2.6,1.53l-.61-.56s6-.49,7.14-.5l-8,0Z"/><path class="cls-9" d="M50.33,17.76s1.86-1,2.18-1.12,5.18-4.17,5.18-4.17l-4.6,4.31A15.2,15.2,0,0,0,50.33,17.76Z"/><polygon class="cls-11" points="55.84 19.23 56.76 19.27 60.47 15.03 55.84 19.23"/><path class="cls-11" d="M59.73,23.8l-.5.29s-.52,2.39-4.23,3.84l-.06.25,1.75-.49s2.94-1.93,3.16-3.92L64,21.17l-4.66,2.34a13.69,13.69,0,0,0-3.92.55S58.69,23.29,59.73,23.8Z"/><path class="cls-9" d="M58.85,11.36l-.63.57a6.76,6.76,0,0,1-2.59,4.36l-2.45,1.95v.33a26.39,26.39,0,0,0,4-3.22A6.42,6.42,0,0,0,58.85,11.36Z"/><path class="cls-9" d="M61.48,14.16l-.79.67a5.88,5.88,0,0,1-1.1,3.24,16.08,16.08,0,0,1-2.88,2.84l-.09.46A9.87,9.87,0,0,0,61.48,14.16Z"/><path class="cls-9" d="M62.36,16.5s1.15,1.2-1.14,3.79c0,0-1.8.38-5.53,3.08l.17-.28,3.8-2.67S62.32,18.72,62.36,16.5Z"/><path class="cls-9" d="M64.58,20.9l.83-.37a8.19,8.19,0,0,1-3.87,4.38,14.66,14.66,0,0,1-2.48.68l.08-.14S63.18,24.3,64.58,20.9Z"/><path class="cls-9" d="M66.1,23.14s1.18,1.71-3.11,3.2a34.85,34.85,0,0,0-4.39,0l2.16-.18S65.29,25,66.1,23.14Z"/><path class="cls-10" d="M57.94,12s-7.9,1.74-9.69,7.35c0,0-1,1.15-1,1.55a2.46,2.46,0,0,0-.8,2.44,2.29,2.29,0,0,0-1.37,2.17,1.65,1.65,0,0,0,2,1.6l.39.09s-3.72.92-3.46-2.69C44.1,23.22,46.47,14.62,57.94,12Z"/><path class="cls-10" d="M45.46,28.57a2.83,2.83,0,0,0,1.91-1.22h.08s-.28,1.42,0,1.85a3.27,3.27,0,0,0,1.94-.53s1.88,4.29-8.19,5.42a21.31,21.31,0,0,0,.52-2.36H42a3.81,3.81,0,0,0,4.18-1.19S47.31,29.4,45.46,28.57Z"/><path class="cls-9" d="M48.17,25.81a5.59,5.59,0,0,0-.73,1.39s-1.67-.25-1.89-1.51,1-2,1.53-2.17a2,2,0,1,1,3.68-1.29l-.33.57a3.36,3.36,0,0,0-2-1.08A3.19,3.19,0,0,0,48,24.31a2.48,2.48,0,0,0-1.82.46,2.61,2.61,0,0,0,1.41,1.48A2.3,2.3,0,0,1,48.17,25.81Z"/><path class="cls-9" d="M50.47,22.89l.33.53a2.9,2.9,0,0,1,1.83-.13,2,2,0,0,1-.49,1.79,4.35,4.35,0,0,1,1.72,2.56,2.82,2.82,0,0,1-1.68.24,3.4,3.4,0,0,0,1.35,0c.7-.16.64.71-.22,1.17,0,0,1.3-.4,1.12-2.38a2.2,2.2,0,0,0-.92-1.49A2.14,2.14,0,0,0,53.38,23a2.7,2.7,0,0,0-2.56-.7Z"/><path class="cls-11" d="M51.16,24.64a7.53,7.53,0,0,0-1,1.2l3.54,1.73S53.85,26.25,51.16,24.64Z"/><path class="cls-11" d="M50.08,25.88l.34,1.46a3.43,3.43,0,0,1-2.8,1.71Z"/><path class="cls-11" d="M51.1,24.6a4.91,4.91,0,0,0-1,1.15S49,22.84,48.5,21.94c0,0-1,1.21.07,3.42,0,0-1.17-1.93-.12-3.47C48.45,21.89,50.44,21.93,51.1,24.6Z"/><path class="cls-11" d="M52.49,23.4,51.2,24.58l.77.48a1.76,1.76,0,0,0,.55-1.66,2.12,2.12,0,0,0-1.63.1A2.64,2.64,0,0,1,52.49,23.4Z"/><path class="cls-11" d="M48.11,24.47a6,6,0,0,0,.54,1.07l-2.27-.74A2.51,2.51,0,0,1,48.11,24.47Z"/><path class="cls-12" d="M50.51,27.41a6.3,6.3,0,0,0,1.35.4s2.71,7.66-11.28,8.88l.4-1.17S53,35.29,50.51,27.41Z"/><path class="cls-6" d="M67.08,37.29l.82.31s-2.52,2.25-9.5-.81c0,0-.17-.78-.22-.86S64.34,39.15,67.08,37.29Z"/><path class="cls-13" d="M57.72,37.64l.14.21s4.44,2.69,5,3,3,1.42,4.47-.22a3.07,3.07,0,0,1-2.45-.12A18.73,18.73,0,0,1,62.08,39c-1.48-.92-3.65-2.2-3.65-2.2l.08.55Z"/><path class="cls-11" d="M23.58,43.82s0,2.71.74,3.85c0,0-1.32,5.59-3.44,5a4.2,4.2,0,0,0,1.73-2.37c.49-1.67.65-2.21.81-6.36Z"/><path class="cls-9" d="M21.78,37.9s-1,3.23,0,5.14c0,0-1.25-1.77-.11-5.22Z"/><path class="cls-11" d="M16.91,54.24l3.75-12.06a6.46,6.46,0,0,0,1.44,2.56s-2.53,8.67-5.53,10.55l.19-.6s-1.35-3.1,1.19-12.61c0,0-2.87,8.45-1.45,13.38l-.41,1.13s4.29-2.52,6.76-12.2l-.66.24s-2.08-1.73-1.4-5.39l-.26.44Z"/><path class="cls-9" d="M18.17,35.33a7.4,7.4,0,0,0-.91,6l-.06.08A7.08,7.08,0,0,1,18.17,35.33Z"/><path class="cls-10" d="M16.82,42.19l.82-.26a46.65,46.65,0,0,1-1.76,5.36c-.66,1.3-3.44,7.47-7.2,6.67,0,0,3.27-.81,5.24-5.18,0,0,.71-1.5.83-1.78S16,44.13,16,44.13Z"/><path class="cls-11" d="M16.24,31.92A26.67,26.67,0,0,0,13.4,33.1L4,37.05c-.21.1,9-3.17,9-3.17s.61-1,3.24-1.88Z"/><path class="cls-10" d="M19.85,20.73s-.45-2-.09-2.29a28.8,28.8,0,0,1,1.9,2.92s-1,.5-1.6-.26l.6.89a2.4,2.4,0,0,1,1.09-.13,2.17,2.17,0,0,1,.87-.12s-.39-.45-.61-.75a20.5,20.5,0,0,0-2.15-2.61S21,18,22.7,19.71a6.66,6.66,0,0,1,1.49,2.77,5.63,5.63,0,0,0-4.73-4.61A4.5,4.5,0,0,0,19.85,20.73Z"/><path class="cls-10" d="M18.6,14.31s-4.2-2.65-6.46-2.66c0,0,.16,1.68,2.84,3.95,0,0-2.23-2.07-1.93-3.27C13,12.32,14.18,11.84,18.6,14.31Z"/><path class="cls-10" d="M8.4,14.25l.78.42s-.09,2,2.62,3.88c0,0,2.21,1.61,3.66,1.63a4.08,4.08,0,0,0-1.39.2l-2.13-1.57-2-1.8-.24,0A7.36,7.36,0,0,1,8.4,14.25Z"/><path class="cls-10" d="M14,20.79a4.55,4.55,0,0,0,.36,1.33s-7-2.81-7.14-5.35A5.8,5.8,0,0,0,9,18.88C10.29,19.81,13.34,21.34,14,20.79Z"/><path class="cls-10" d="M9.65,20.73s-3.32-.39-4,.22L5,20.71s.52,1.57,4.49,3.35c0,0,2,.66,3.05-.11l.13.08a15,15,0,0,0-1.58.89S6,23.12,4.86,20.71A8.15,8.15,0,0,1,9.65,20.73Z"/><path class="cls-10" d="M11,25.19a2,2,0,0,0,.44.7A17.39,17.39,0,0,0,8.1,25.7s-3.6-1.13-4.2-2.6A8.31,8.31,0,0,0,11,25.19Z"/><path class="cls-10" d="M6.6,26.3s-2.69.44-3.32,1.3l-.27,0S3.19,28.71,7.8,30c0,0,2.41.64,3.79-.58l0,.08a6.51,6.51,0,0,0-1,.83,10.94,10.94,0,0,1-3.41-.38c-1.78-.5-3.77-1.33-4.46-2.35A7,7,0,0,1,6.6,26.3Z"/><path class="cls-11" d="M3.64,27.69s5.48.5,6.56.56a36.54,36.54,0,0,0,4.24,0,5.48,5.48,0,0,0-2.21.67s-2.63-.41-3.57-.53"/><path class="cls-10" d="M2.73,30.43a4.81,4.81,0,0,0,3,.84c1.94,0,4.24-.31,4.57-.18l.52.42s-2.54.24-3.63.23S3.59,31.93,2.73,30.43Z"/><path class="cls-10" d="M8.27,33.12s-4.48,2.43-4.55,4l-.33.14s.23.54,3.44,0l.2.14-.49,0a7.56,7.56,0,0,1-3.51,0S3.74,35.36,8.27,33.12Z"/><path class="cls-6" d="M12.12,35.64a7.65,7.65,0,0,0-.17.94,31.5,31.5,0,0,1-3.86,1.06s-.31.09-.45-.13c0,0-.12-.16-.55-.12l-.17-.11A18.17,18.17,0,0,0,12.12,35.64Z"/><path class="cls-11" d="M17.32,35.85a5.43,5.43,0,0,0-.58,1.36L6.83,49.89s2.26.22,6.72-5.58a31.53,31.53,0,0,0,2.84-4.65,9.57,9.57,0,0,1,.14-1.2,14.56,14.56,0,0,0,0,2.27s-5.34,9.49-10.69,10.2l5.21-7,5.63-7.7Z"/><path class="cls-11" d="M23.58,43.82s0,2.71.74,3.85c0,0-1.32,5.59-3.44,5a4.2,4.2,0,0,0,1.73-2.37c.49-1.67.65-2.21.81-6.36Z"/><path class="cls-11" d="M16.91,54.24l3.75-12.06a6.46,6.46,0,0,0,1.44,2.56s-2.53,8.67-5.53,10.55l.19-.6s-1.35-3.1,1.19-12.61c0,0-2.87,8.45-1.45,13.38l-.41,1.13s4.29-2.52,6.76-12.2l-.66.24s-2.08-1.73-1.4-5.39l-.26.44Z"/><path class="cls-10" d="M16.82,42.19l.82-.26a46.65,46.65,0,0,1-1.76,5.36c-.66,1.3-3.44,7.47-7.2,6.67,0,0,3.27-.81,5.24-5.18,0,0,.71-1.5.83-1.78S16,44.13,16,44.13Z"/><path class="cls-11" d="M17.32,35.85a5.43,5.43,0,0,0-.58,1.36L6.83,49.89s2.26.22,6.72-5.58a31.53,31.53,0,0,0,2.84-4.65,9.57,9.57,0,0,1,.14-1.2,14.56,14.56,0,0,0,0,2.27s-5.34,9.49-10.69,10.2l5.21-7,5.63-7.7Z"/><path class="cls-10" d="M13.48,37.26a55.26,55.26,0,0,0-4.93,6.48,11.28,11.28,0,0,0-1.84,6l-.22.31a12,12,0,0,1,.32-2.82C7.15,46.19,8.51,42.25,13.48,37.26Z"/><path class="cls-10" d="M13,36.92,10,40.21a23.56,23.56,0,0,1-4.18,2,2.69,2.69,0,0,1-3.33-1,5.23,5.23,0,0,0,2.68,0,13,13,0,0,0,2.47-1s2.9-1.83,3.51-2.3,1.72-1.13,1.72-1.13Z"/><path class="cls-11" d="M25.61,39.2a2,2,0,0,0,.71,1L24.9,46.36l.67-5.74A8.78,8.78,0,0,1,24,43.31s.14,3,.71,3.84c0,0,2.33-1.67,2.6-6.09,0,0,.08-.26-.26-.41,0,0-.38-.23-.52-.34a6.2,6.2,0,0,0,1.39.47s-.46,5.17-3.29,7.24l.06-.8s-.65-.73-.77-3.77a5.4,5.4,0,0,1-1.68,1.12l.13-.63s2.35-.9,3-4.82a4.25,4.25,0,0,1-1.61,0l-1.34,4.59L23,38.95a7.82,7.82,0,0,1-1.56-1.35l0-.06.06.06a2.11,2.11,0,0,0,.24-.54.15.15,0,0,0,0-.09h0l.11.17a3,3,0,0,0,3.66,1.25,1.18,1.18,0,0,1-.06.48l.12,0a.44.44,0,0,0,0-.35v-.09s.4,1.17,2.65.85c0,0,.23-.08.26.11a1.91,1.91,0,0,1,0,.35h.08v-.34l-.05-.05v0a1.82,1.82,0,0,0,2.33-.13l.43.63-.13-.08a2.79,2.79,0,0,1-2.67.07A3.76,3.76,0,0,1,25.61,39.2Z"/><path class="cls-11" d="M18.51,35.21a2.49,2.49,0,0,0,.42.73,7.17,7.17,0,0,1,.42.6c.19.3.37.29.43.25a2.79,2.79,0,0,0,.25-.36,1.92,1.92,0,0,0,1.73.51v0l-.36.8a16.57,16.57,0,0,1-1.22,2.31,6.38,6.38,0,0,1-3.35,2.08l.41-.77a3,3,0,0,0,1.58-.6,6.68,6.68,0,0,0,2.35-3.19,8,8,0,0,1-1.47-.63l-2.2,3.85,1.53-4a.58.58,0,0,0-.06-.55A2.82,2.82,0,0,1,18.51,35.21Z"/><path class="cls-11" d="M16.09,32.14a5.27,5.27,0,0,0-3.43,4.09s2.34.82,5.42-1.36A6.41,6.41,0,0,1,17,34l-4,2.11a44.78,44.78,0,0,0,3.7-2.7l.53-.24a4.36,4.36,0,0,0,1.58,1.43s-3.07,3.22-6.7,2l.52-.28A5,5,0,0,1,16.09,32.14Z"/><path class="cls-11" d="M13.14,29s-2,1-2.2,1.95l4.67-.81.53.79V31l-.31-.33-4.88.37a8.62,8.62,0,0,0,4.24,1.18,10.26,10.26,0,0,0-1.21.53,7.33,7.33,0,0,1-3.17-1.17l.14,0s1.39.82,1.55.58-.55-.32-.87-.49-1-.58-1-.65A4.61,4.61,0,0,1,13.14,29Z"/><path class="cls-11" d="M16.36,24.34s-2.92-.45-4.49.85c0,0,1.19.38,2.23.59l2.65.53s-.47.34-.51.45l-4.39-1.53a4.47,4.47,0,0,0,2.65,2.62s.77.32.94.09a3.3,3.3,0,0,1,.49-.68c.13-.07-.4.42-.48,1.08,0,0-.82-.3-1-.4a5.28,5.28,0,0,1-2.72-2.77S13,23.83,16.36,24.34Z"/><path class="cls-11" d="M20,22.06a9.94,9.94,0,0,0-5.24-1.2s.1,2.88,2.37,2.69c0,0-.39.59-.64.43a4.21,4.21,0,0,1-1.93-3.25A8,8,0,0,1,20,22.06Z"/><path class="cls-11" d="M15,21s3.19,1.68,4.11,2l-.11.29a3.43,3.43,0,0,0-1.1-.18Z"/><path class="cls-11" d="M13.16,12.39l4.08,3.15a17.58,17.58,0,0,0,3.65,2.25l-1.46-.49s-.4-.12-.44.45c0,0-.07.4-.09.52a1.91,1.91,0,0,0-.17-1c-.23-.29-1.5-1.42-1.5-1.42Z"/><path class="cls-11" d="M19.21,20.43a5.21,5.21,0,0,0,.3.75l0,.08a15.45,15.45,0,0,0-3.1-1l-7.2-5.51s1.11-.42,4.24.86c0,0-3.21-1.16-3.9-.7l8,5.32a12.5,12.5,0,0,0,1.74.89A2.68,2.68,0,0,1,19.21,20.43Z"/><path class="cls-11" d="M6,21.07l9.13,2.68-.19-.33.42.44a8,8,0,0,0-2,0S6.66,21.23,6,21.07Z"/><path class="cls-11" d="M21.82,21.9a1.83,1.83,0,0,1,1,0A2.14,2.14,0,0,1,24,24l-.48.34A2.17,2.17,0,0,0,21.82,21.9Z"/><path class="cls-11" d="M24,24.08s1.48.45,1.43,1.68a1.52,1.52,0,0,1-1.85,1.53s1.39,0,1.4-1.28a1.47,1.47,0,0,0-1.44-1.59Z"/><path class="cls-10" d="M21.56,16.46S28.7,21.81,27,26.14A2.29,2.29,0,0,1,24.1,27.4,2.38,2.38,0,0,0,26.42,25S26.38,21.88,21.56,16.46Z"/><path class="cls-11" d="M22.14,26.68l1.6-.14s-.3.9-.94,1A7.67,7.67,0,0,0,22.14,26.68Z"/><path class="cls-11" d="M22.09,23,20.8,26.77a4.24,4.24,0,0,0,1.24-.1S23.15,24.48,22.09,23Z"/><path class="cls-11" d="M23.14,30.38l-2.32-3.55a5,5,0,0,0,1.25-.12A4.23,4.23,0,0,1,23.14,30.38Z"/><path class="cls-11" d="M20,24.91A5.85,5.85,0,0,0,19.72,26s.62.52.79.63a8.23,8.23,0,0,1-1.25-1l-.85-.84A2.39,2.39,0,0,1,20,24.91Z"/><path class="cls-11" d="M20.75,26.84l-.63,1.92a3.88,3.88,0,0,1-3.15,0Z"/><path class="cls-10" d="M19.9,36.27s-1.05-1.33-.74-2.15c0,0-.91-.7-.93-1.4,0,0,.46.9,1.06,1.07a10.14,10.14,0,0,0,2.56,1.45s-4.74-1.82-3.47-6c0,0-1.14,0-1.49-.39a3.11,3.11,0,0,1,2.24-2.64,2.53,2.53,0,0,0-.75.16,1.56,1.56,0,0,1,0-1.59,2.11,2.11,0,0,1,1.63.09S21,23,22.1,22.92a2.84,2.84,0,0,1,.43,2.66s1.16.47,1.26.93a1.81,1.81,0,0,1-.33.71s1.41,0,1.43-1.12a1.47,1.47,0,0,0-1.46-1.64s.27-2.2-1.7-2.54a2.35,2.35,0,0,0-2.4,1.64,2.23,2.23,0,0,0-2.4.67,2.25,2.25,0,0,0,.23,2.11A3.09,3.09,0,0,0,15.76,29a3.79,3.79,0,0,0,1,2,4,4,0,0,0,2,3.57S19.3,36,19.9,36.27Z"/><path class="cls-14" d="M20.12,28.84a3.66,3.66,0,0,0,2.79,1.56A4.7,4.7,0,0,1,21.3,30s-.89,2.31,2.84,3.46a22,22,0,0,0,3.89.79l-.21,1.21a19.63,19.63,0,0,1-5.08-1.35C21.09,33.21,19.19,32.08,20.12,28.84Z"/><path class="cls-11" d="M34.45,12.94a4,4,0,0,0,.74.25c.41.09.78.2.77.25a.82.82,0,0,1-.88.52C34.48,13.87,34.41,13.43,34.45,12.94Z"/><path class="cls-9" d="M59.69,30.33l-5.5-.43a5,5,0,0,1,.13.6ZM53,33.46s0,.11,0,.2l4.09,2.54-3.72-2.95A1.74,1.74,0,0,1,53,33.46Zm5.75-9.08L55,26.11a3.12,3.12,0,0,1,.14.48Z"/><path class="cls-9" d="M59.88,31.46h0a5.17,5.17,0,0,1-.7.45c.42.05,3,.87,3,.87,5.6.68,5.28-2.4,5.28-2.4C66.7,32.45,59.88,31.46,59.88,31.46Z"/><path class="cls-15" d="M59.22,63a2,2,0,0,1-.22.67c.38.19.52.63.74,1,.76-.49.67-2.42-.27-2.64A6.58,6.58,0,0,0,59.22,63Z"/><path class="cls-15" d="M57.29,67.44a3.59,3.59,0,0,1-.2,1.56c1.08.08,1.59-.73,1.76-1.6,0,0,0-.14-.39,0A4.48,4.48,0,0,1,57.29,67.44Z"/><path class="cls-15" d="M54.07,70a5.93,5.93,0,0,1-.92.79,1.83,1.83,0,0,0,2.32-.54c0-.09,0-.22.07-.29s0-.16-.41,0A1.41,1.41,0,0,1,54.07,70Z"/><path class="cls-15" d="M47.48,67.08a3.72,3.72,0,0,1-.7,0c.31,1,2.11,1.44,2.71.62-.53-.08-.75-.46-.9-.92C48.52,66.69,47.8,67,47.48,67.08Z"/><path class="cls-15" d="M22.59,67.75c-.43,0-.54-.23-.54-.23a1.76,1.76,0,0,1-.17.8c-.1.19-.32.23-.4.41.78.43,2.26.17,2.14-.93A4.19,4.19,0,0,0,22.59,67.75Z"/><path class="cls-15" d="M15.32,70.79c.18.94,2.11,1.47,2.75.59-.29-.13-1-.68-1-1.11A2.13,2.13,0,0,1,15.32,70.79Z"/><path class="cls-15" d="M11.83,68.27a1.82,1.82,0,0,0,1,1.31,2.76,2.76,0,0,0,1.49.41c-.09-.23-.32-.41-.43-.72s0-.7-.16-1.06A3.18,3.18,0,0,1,11.83,68.27Z"/><path class="cls-15" d="M10.86,63.47c-.65.65-.52,2.45.47,2.61,0-.83.52-1.1,1-1.46A2,2,0,0,1,10.86,63.47Z"/><path class="cls-15" d="M35.67,16.53c.34.53-.34.43-.34.43-2.5-1.27-3,.3-3,.3s-.07.39,0,.47a.33.33,0,0,0,.32-.06c.92-.73,2.29,0,2.29,0,2.27,1.09,2.06-.58,2.06-.58-.38-2.38-4-2.44-4-2.44a2.53,2.53,0,0,0-2.57-2c-1.14.05-2,.47-2.12,1.56A4.11,4.11,0,0,0,28.71,16a2.2,2.2,0,0,1,1.71-.68,1.31,1.31,0,0,1,1.06.7C34.68,15.06,35.67,16.53,35.67,16.53Z"/><path class="cls-8" d="M35.65,17.94a4.79,4.79,0,0,1-.64-.26,2.63,2.63,0,0,0-1.93-.22,2.49,2.49,0,0,1,2.23,1.42,2.79,2.79,0,0,1-.19,2.5c.29-.38.66-.92.66-.92a2.12,2.12,0,0,0,0-2.49Zm1.41-.58c0,.32-.23.82-1.09.67h-.06a2.52,2.52,0,0,1,.2.19,1.39,1.39,0,0,0,.72-.19.3.3,0,0,1-.16.34,5.59,5.59,0,0,1-.15,2.49.15.15,0,0,1,.23-.08.35.35,0,0,0,.34.16A4,4,0,0,0,37.07,17.36Z"/><path class="cls-16" d="M36.1,15.68c-.05.08.37.74.47,1s.36,1.44-1.3.69-2.36-.27-2.56.07,0,.24,0,.24c.92-.73,2.29,0,2.29,0,2.27,1.09,2.06-.58,2.06-.58a2.28,2.28,0,0,0-.89-1.47S36.16,15.6,36.1,15.68Zm-7,0a2.34,2.34,0,0,1,1.33-.37,1.31,1.31,0,0,1,1.06.7c3.2-1,4.19.51,4.19.51a.39.39,0,0,1,.09.29s.19-.09,0-.43-1.06-1.22-3.18-1c0,0-2.42-1.73-3.48.17C29.06,15.55,28.92,15.78,29.09,15.69Z"/><path class="cls-15" d="M34.91,11.26c3.54.7,3.8.26,3.8.26.3-1.18.55-2.34.95-3.4A23,23,0,0,1,41.08,5.2c-.73.39-1.67.57-2.19,1.17-.45-.57-1.33-.14-1.51.34.05-.59-.21-.87-.74-.88A.6.6,0,0,0,35.79,5c-.07-.46-.39-.66-.63-.95a1.55,1.55,0,0,0-.47,1.11.52.52,0,0,0-.84.61c-.63,0-.77.63-.79,1.17a.89.89,0,0,0-1.51-.34c-.28-.81-1.49-.69-2-1.24a27.42,27.42,0,0,1,2.21,5.73A13,13,0,0,1,34.91,11.26Z"/><path class="cls-16" d="M31,13.31s.12.09.14.14a.39.39,0,0,1,0,.36.87.87,0,0,0,0,.23s0,.24-.4,0c0,0,0,.2.49.21a1.54,1.54,0,0,1,1.25.47s.16.18.19.18.09,0,.08-.05A2,2,0,0,0,31,13.31Z"/><path class="cls-16" d="M31.64,6.75s.17.13.08.93.16,1.12.31,1.15a1.35,1.35,0,0,0,.6,0,.87.87,0,0,1,.11-.47,1.9,1.9,0,0,0,.36-1,1.76,1.76,0,0,1-.34,1.12s-.27.51.37.57.74-.21.77-.3a.66.66,0,0,0-.26-.54,1.46,1.46,0,0,1-.34-.54,5.06,5.06,0,0,0,.5.66.45.45,0,0,1,0,.66s0,.14.26.06A1.56,1.56,0,0,0,35,7.93a.64.64,0,0,0-.16-.4c-.16-.18-.6-1.25.42-1.5,0,0,.92-.15.76,1.19a4.85,4.85,0,0,0-.13.77.93.93,0,0,0,.77,1.09,1.42,1.42,0,0,1,0-.72c.13-.24.47-.74.47-.74A1.06,1.06,0,0,0,37,6.48a1,1,0,0,1,.22,1C37,8,36.22,8.76,37,9.1c0,0,.64.16.77-.36A1.21,1.21,0,0,0,37.64,8a1.31,1.31,0,0,1-.08-1.26,1.24,1.24,0,0,0,0,1c.25.54.31,1,.15,1.2,0,0,.53.13.74-.14a2.22,2.22,0,0,0,.36-1.1,3.3,3.3,0,0,1,.47-1.5,3.09,3.09,0,0,0-.38,1.34c-.06.85-.15,1.44-.51,1.5a2,2,0,0,1-.78,0,2.38,2.38,0,0,1-1.16,0c-.51-.17-.84-.6-.83-1.55a.41.41,0,0,1-.22,0,.53.53,0,0,0,.35-.42c.08-.35,0-1-.53-1.07a.67.67,0,0,0-.62.78,1.23,1.23,0,0,0,.26.65.83.83,0,0,1-.13,1,1.21,1.21,0,0,1-1,.56c-.57,0-1,0-1.16-.2,0,0-.8.21-.95-.35a1.93,1.93,0,0,1,0-.64,2.65,2.65,0,0,0,0-1.12S31.62,6.76,31.64,6.75Z"/><path class="cls-16" d="M35.22,11.23s.87.11,1.25.17a7.75,7.75,0,0,0,1,.12c.25,0,1,0,1,0v.05a5.25,5.25,0,0,1-1.57,0l-1.67-.27Z"/><path class="cls-16" d="M32.32,10.61v0l1.38.07,1.24.11c.15,0,1.46.14,1.84.16a10.69,10.69,0,0,0,1.52,0s0,0-.17,0-1,0-1.39,0-1-.05-1.13-.07l-2-.17Z"/><path class="cls-16" d="M33.9,9.52A6.09,6.09,0,0,0,33,9.46c-.63,0-.8,0-.81.37s.2.34.2.34h.3s.94,0,1.15,0,.24-.21.24-.37A.28.28,0,0,0,33.9,9.52Zm-.39.63H32.43c-.14-.05-.16-.25-.15-.42s.28-.19.35-.2h.95c.12,0,.17.12.17.37A.27.27,0,0,1,33.5,10.14Z"/><path class="cls-16" d="M38.29,9.73a9.46,9.46,0,0,0-1-.12c-.48,0-.57.21-.52.51s.91.35,1.29.37.53-.16.56-.32A.42.42,0,0,0,38.29,9.73Zm-.39.58a4.1,4.1,0,0,1-1-.11c-.05,0-.17-.14-.06-.39,0,0,.1-.19.5-.15s1,.14,1,.15A.4.4,0,0,1,37.89,10.31Z"/><path class="cls-16" d="M36.39,9.83c0-.21-.26-.28-.31-.29a9.47,9.47,0,0,0-1-.07l-.29,0a.29.29,0,0,0-.27.3.46.46,0,0,0,.13.31,4,4,0,0,0,1.37.15h0c.33,0,.37-.39.37-.39h0A.21.21,0,0,0,36.39,9.83Zm-1.6-.32.28,0h0a8.89,8.89,0,0,1,.94.07.38.38,0,0,1-.25.55,5.72,5.72,0,0,1-1.11,0h0a.44.44,0,0,1-.11-.28A.26.26,0,0,1,34.78,9.51Z"/><path class="cls-6" d="M37.72,70.77a3.91,3.91,0,0,1-.41-2.08c0-.13-.14-.23-.24-.29a6.35,6.35,0,0,1-.37,1.08,8.63,8.63,0,0,1-1.22,6.77C34,74.89,34.23,70,34.23,70l0,0c-.3,5.39,1.3,6.48,1.3,6.48l0,1a9.33,9.33,0,0,0,1.76-4.69,7.4,7.4,0,0,0-.27-3l.37.55Z"/></g></g></svg>