<svg xmlns="http://www.w3.org/2000/svg" viewBox="0 0 153.45 43.61"><defs><style>.cls-1{fill:#62839a;}</style></defs><title>Zasób 7logo</title><g id="Warstwa_2" data-name="Warstwa 2"><g id="Layer_1" data-name="Layer 1"><path class="cls-1" d="M111.47,5.93a68.09,68.09,0,0,1,1.82,15.88,68.92,68.92,0,0,1-1.82,15.88,5.55,5.55,0,0,1-4.1,4.1,68.3,68.3,0,0,1-15.88,1.82A69.12,69.12,0,0,1,75.6,41.79a5.56,5.56,0,0,1-4.1-4.1,69,69,0,0,1-1.82-15.88A69.08,69.08,0,0,1,71.5,5.93a5.56,5.56,0,0,1,4.1-4.1A68.15,68.15,0,0,1,91.49,0a69.29,69.29,0,0,1,15.89,1.82A5.57,5.57,0,0,1,111.47,5.93ZM98.31,21.81c0-1.64-.18-13-.54-14.53a1.18,1.18,0,0,0-1-.85,30.05,30.05,0,0,0-10.67,0,1.17,1.17,0,0,0-1,.85c-.36,1.49-.54,12.89-.54,14.53s.18,13,.54,14.53a1.17,1.17,0,0,0,1,.85,30.3,30.3,0,0,0,10.67,0,1.18,1.18,0,0,0,1-.85C98.13,34.85,98.31,23.45,98.31,21.81Zm-45.18-20A69,69,0,0,0,37.24,0,68.21,68.21,0,0,0,21.36,1.83a5.55,5.55,0,0,0-4.1,4.1,69.93,69.93,0,0,0,0,31.77,5.56,5.56,0,0,0,4.1,4.1,69.14,69.14,0,0,0,15.89,1.82,68.11,68.11,0,0,0,15.89-1.82,5.55,5.55,0,0,0,4.1-4.1,66.75,66.75,0,0,0,1.6-10.28v-.32a1.39,1.39,0,0,0-1.35-1.44h-12A1.45,1.45,0,0,0,44,27.09L43.94,29c-.09,3.3-.23,6.62-.41,7.39a1.18,1.18,0,0,1-1,.85,30.05,30.05,0,0,1-10.67,0,1.17,1.17,0,0,1-1-.85c-.36-1.49-.54-12.89-.54-14.53s.18-13,.54-14.53a1.18,1.18,0,0,1,1-.85,30,30,0,0,1,10.67,0,1.18,1.18,0,0,1,1,.85,66.58,66.58,0,0,1,.4,6.89L44,16.38a1.45,1.45,0,0,0,1.4,1.44h12a1.39,1.39,0,0,0,1.35-1.44v-.27a66,66,0,0,0-1.6-10.19A5.55,5.55,0,0,0,53.13,1.83ZM135.9.53c-1.51-.09-3-.13-4.55-.13s-3.13,0-4.75.13A2.43,2.43,0,0,0,124.31,3V40.63a2.43,2.43,0,0,0,2.27,2.43c1.52.1,3.08.15,4.63.16h.32c1.46,0,2.94-.07,4.38-.16a2.42,2.42,0,0,0,2.27-2.42V3A2.42,2.42,0,0,0,135.9.53Zm11.13,19h-1a.27.27,0,0,0-.25.27v4.11a.26.26,0,0,0,.24.26l.49,0h0l.47,0a.26.26,0,0,0,.24-.26V19.75A.27.27,0,0,0,147,19.49ZM11,20.94a8.61,8.61,0,0,1-.07,2.26,1,1,0,0,1-.09.34.87.87,0,0,1-.28.31,1.74,1.74,0,0,1-.68.24,6.76,6.76,0,0,1-1.2.11h0A6.07,6.07,0,0,1,7.15,24a.92.92,0,0,1-.76-.61,5.2,5.2,0,0,1-.11-.74,9.11,9.11,0,0,1,0-1.42c0-.24,0-.47.08-.71a1,1,0,0,1,.26-.67,2.28,2.28,0,0,1,1.3-.41,8.39,8.39,0,0,1,1.4,0l.55.08a1.71,1.71,0,0,1,.68.23.82.82,0,0,1,.29.34,1.45,1.45,0,0,1,.07.31C10.91,20.59,10.93,20.76,11,20.94Zm-1.46-.48a.26.26,0,0,0-.22-.26h0l-.17,0H8.14l-.18,0a.27.27,0,0,0-.23.26v2.68A.26.26,0,0,0,8,23.4H8l.17,0h.93l.18,0a.26.26,0,0,0,.22-.26Zm-4.78.48a8.72,8.72,0,0,1-.07,2.26,1,1,0,0,1-.09.34.88.88,0,0,1-.27.31,1.78,1.78,0,0,1-.68.24,6.73,6.73,0,0,1-1.2.11h0A6.13,6.13,0,0,1,.91,24a.92.92,0,0,1-.76-.61A5.38,5.38,0,0,1,0,22.67a8.36,8.36,0,0,1,0-1.42,5.92,5.92,0,0,1,.08-.71,1,1,0,0,1,.26-.67,2.27,2.27,0,0,1,1.3-.41,8.37,8.37,0,0,1,1.4,0l.54.08a1.75,1.75,0,0,1,.68.23.84.84,0,0,1,.29.34,1.45,1.45,0,0,1,.07.31C4.67,20.59,4.69,20.76,4.71,20.94Zm-1.46-.48A.26.26,0,0,0,3,20.2H3l-.17,0H1.9l-.18,0a.27.27,0,0,0-.22.26v2.68a.26.26,0,0,0,.22.26h0l.17,0h.93l.18,0a.26.26,0,0,0,.22-.26V20.46Zm150.16.48a8.6,8.6,0,0,1-.07,2.26,1,1,0,0,1-.09.34.86.86,0,0,1-.27.31,1.76,1.76,0,0,1-.68.24,6.65,6.65,0,0,1-1.19.11h0a6,6,0,0,1-1.46-.17.92.92,0,0,1-.76-.61,6.08,6.08,0,0,1-.11-.74,9,9,0,0,1,0-1.42c0-.24,0-.47.08-.71a1,1,0,0,1,.26-.67,2.27,2.27,0,0,1,1.3-.41,8.45,8.45,0,0,1,1.4,0l.54.08a1.78,1.78,0,0,1,.68.23.81.81,0,0,1,.29.34,1.55,1.55,0,0,1,.08.31C153.37,20.59,153.4,20.76,153.41,20.94ZM152,20.46a.26.26,0,0,0-.23-.26h0l-.16,0h-.94l-.18,0a.27.27,0,0,0-.23.26v2.68a.26.26,0,0,0,.23.26h0l.16,0h.94l.18,0a.27.27,0,0,0,.23-.26Zm-87.3.48a8.28,8.28,0,0,1-.07,2.26,1,1,0,0,1-.08.34.91.91,0,0,1-.28.31,1.73,1.73,0,0,1-.68.24,6.76,6.76,0,0,1-1.19.11h0A6.06,6.06,0,0,1,60.86,24a.92.92,0,0,1-.76-.61,6.08,6.08,0,0,1-.11-.74,9.8,9.8,0,0,1,0-1.42c0-.24,0-.47.08-.71a1,1,0,0,1,.26-.67,2.27,2.27,0,0,1,1.3-.41,8.4,8.4,0,0,1,1.4,0l.55.08a1.74,1.74,0,0,1,.68.23.83.83,0,0,1,.29.34,1.3,1.3,0,0,1,.07.31C64.62,20.59,64.64,20.76,64.66,20.94Zm-1.46-.48A.26.26,0,0,0,63,20.2h0l-.16,0h-.93l-.18,0a.26.26,0,0,0-.22.26v2.68a.25.25,0,0,0,.22.26h0l.17,0h.93l.18,0a.26.26,0,0,0,.22-.26V20.46Zm4.21-1h-1a.27.27,0,0,0-.24.27v4.11a.26.26,0,0,0,.24.26l.49,0h0l.46,0a.26.26,0,0,0,.24-.26V19.75A.26.26,0,0,0,67.41,19.49Zm20,0h-1a.27.27,0,0,0-.25.27v4.11a.26.26,0,0,0,.24.26l.49,0h0l.47,0a.26.26,0,0,0,.24-.26V19.75A.26.26,0,0,0,87.4,19.49Zm32.06,0h-1a.26.26,0,0,0-.24.26v4.11a.26.26,0,0,0,.24.26l.46,0h0l.49,0a.26.26,0,0,0,.24-.26v-4.1A.27.27,0,0,0,119.46,19.49ZM93.81,20.94a8.44,8.44,0,0,1-.07,2.26.82.82,0,0,1-.08.34.89.89,0,0,1-.27.31,1.76,1.76,0,0,1-.68.24,6.66,6.66,0,0,1-1.19.11h0A6.05,6.05,0,0,1,90,24a.91.91,0,0,1-.75-.61,5.4,5.4,0,0,1-.12-.74,9.62,9.62,0,0,1,0-1.42c0-.24,0-.47.08-.71a1,1,0,0,1,.26-.67,2.29,2.29,0,0,1,1.3-.41,8.42,8.42,0,0,1,1.4,0l.54.08a1.74,1.74,0,0,1,.68.23.84.84,0,0,1,.29.34,1.44,1.44,0,0,1,.07.31C93.77,20.59,93.79,20.76,93.81,20.94Zm-1.46-.48a.26.26,0,0,0-.22-.26h0l-.17,0H91l-.17,0a.26.26,0,0,0-.22.26v2.68a.25.25,0,0,0,.22.26h0l.17,0h.93l.18,0a.26.26,0,0,0,.22-.26Zm4.21-1h-1a.26.26,0,0,0-.24.27v4.11a.26.26,0,0,0,.24.26l.49,0h0l.46,0a.26.26,0,0,0,.24-.26V19.75A.26.26,0,0,0,96.56,19.49Zm-82.86,0h-1a.26.26,0,0,0-.24.27v4.11a.26.26,0,0,0,.24.26l.49,0h0l.47,0a.26.26,0,0,0,.24-.26V19.75A.26.26,0,0,0,13.7,19.49Zm19.38,0h-.5a.26.26,0,0,0-.24.27v4.11a.26.26,0,0,0,.24.26l.49,0h0l.47,0a.26.26,0,0,0,.24-.26V19.75a.26.26,0,0,0-.25-.26Zm83.29,0h-1a.27.27,0,0,0-.25.26v4.11a.26.26,0,0,0,.24.26l.46,0h0l.49,0a.26.26,0,0,0,.24-.26v-4.1A.26.26,0,0,0,116.37,19.49ZM58.42,20.94a8.44,8.44,0,0,1-.07,2.26.9.9,0,0,1-.09.34.86.86,0,0,1-.27.31,1.8,1.8,0,0,1-.69.24,6.65,6.65,0,0,1-1.19.11h0A6.09,6.09,0,0,1,54.62,24a.92.92,0,0,1-.76-.61,6.08,6.08,0,0,1-.11-.74,9.11,9.11,0,0,1,0-1.42c0-.24,0-.47.08-.71a1,1,0,0,1,.26-.67,2.29,2.29,0,0,1,1.3-.41,8.4,8.4,0,0,1,1.4,0l.54.08a1.8,1.8,0,0,1,.69.23.83.83,0,0,1,.29.34,1.45,1.45,0,0,1,.07.31C58.38,20.59,58.4,20.76,58.42,20.94ZM57,20.46a.26.26,0,0,0-.22-.26h0l-.17,0h-.93l-.18,0a.27.27,0,0,0-.23.26v2.68a.26.26,0,0,0,.23.26h0l.17,0h.93l.18,0a.26.26,0,0,0,.22-.26Zm-5.44-1H51a.26.26,0,0,0-.24.27v4.11a.26.26,0,0,0,.24.26l.49,0h0l.47,0a.26.26,0,0,0,.24-.26V19.75a.26.26,0,0,0-.24-.26Zm92.77,1.47a8.55,8.55,0,0,1-.07,2.26,1,1,0,0,1-.09.34.86.86,0,0,1-.27.31,1.8,1.8,0,0,1-.68.24,6.76,6.76,0,0,1-1.19.11h0a6.05,6.05,0,0,1-1.46-.17.92.92,0,0,1-.76-.61,6.35,6.35,0,0,1-.11-.74,9.62,9.62,0,0,1,0-1.42c0-.24,0-.47.08-.71a1,1,0,0,1,.26-.67,2.27,2.27,0,0,1,1.3-.41,8.4,8.4,0,0,1,1.4,0l.55.08a1.77,1.77,0,0,1,.68.23.84.84,0,0,1,.29.34,1.54,1.54,0,0,1,.07.31C144.25,20.59,144.27,20.76,144.29,20.94Zm-1.46-.48a.27.27,0,0,0-.23-.26h0l-.17,0h-.93l-.17,0a.26.26,0,0,0-.22.26v2.68a.25.25,0,0,0,.22.26h0l.17,0h.93l.18,0a.27.27,0,0,0,.23-.26V20.46h0Zm-102.92,0c0,.17.05.35.08.53a8.39,8.39,0,0,1-.08,2.26.87.87,0,0,1-.08.34.94.94,0,0,1-.27.31,1.78,1.78,0,0,1-.68.24,6.68,6.68,0,0,1-1.19.11h0A6,6,0,0,1,36.18,24a.92.92,0,0,1-.76-.61,5.83,5.83,0,0,1-.11-.74,8.65,8.65,0,0,1,0-1.42c0-.24,0-.47.08-.71a1,1,0,0,1,.26-.67,2.28,2.28,0,0,1,1.3-.41,8.42,8.42,0,0,1,1.4,0l.54.08a1.76,1.76,0,0,1,.68.23.84.84,0,0,1,.29.34A1.31,1.31,0,0,1,39.9,20.41Zm-1.39,0a.26.26,0,0,0-.22-.26h0l-.17,0h-.93l-.18,0a.26.26,0,0,0-.22.26v2.68a.25.25,0,0,0,.22.26h0l.17,0h.93l.17,0a.26.26,0,0,0,.22-.26V20.46h0Zm84-1h-1a.27.27,0,0,0-.24.26v4.11a.26.26,0,0,0,.24.26l.47,0h0l.49,0a.26.26,0,0,0,.24-.26v-4.1A.26.26,0,0,0,122.55,19.49Zm-73.41.93c0,.17.05.35.07.53a8.55,8.55,0,0,1-.07,2.26.92.92,0,0,1-.09.34.87.87,0,0,1-.27.31,1.79,1.79,0,0,1-.68.24,6.69,6.69,0,0,1-1.19.11h0A6.07,6.07,0,0,1,45.41,24a.91.91,0,0,1-.76-.61,5.2,5.2,0,0,1-.11-.74,8.65,8.65,0,0,1,0-1.42c0-.24,0-.47.08-.71a1,1,0,0,1,.26-.67,2.29,2.29,0,0,1,1.3-.41,8.39,8.39,0,0,1,1.4,0l.54.08a1.76,1.76,0,0,1,.68.23.84.84,0,0,1,.29.34A1.55,1.55,0,0,1,49.14,20.41Zm-1.39,0a.26.26,0,0,0-.23-.26h0l-.17,0H46.4l-.18,0a.27.27,0,0,0-.23.26v2.68a.26.26,0,0,0,.23.26h0l.17,0h.93l.18,0a.26.26,0,0,0,.23-.26V20.46Zm-5.47-1h-.5a.26.26,0,0,0-.24.27v4.11a.26.26,0,0,0,.24.26l.49,0h0l.47,0a.26.26,0,0,0,.24-.26V19.75a.27.27,0,0,0-.25-.26Z"/></g></g></svg>