<svg id="Warstwa_1" data-name="Warstwa 1" xmlns="http://www.w3.org/2000/svg" viewBox="0 0 156.18 59.79"><defs><style>.cls-1{fill:#58595b;}.cls-2{fill:#0e3050;}.cls-3{fill:#47c3cf;}</style></defs><title>pBRaplikacje-logo</title><path class="cls-1" d="M8.22,5.24a3,3,0,0,1-1.1,2.49A5,5,0,0,1,4,8.6H2.7v4.19H1.47V2.14H4.23Q8.22,2.14,8.22,5.24ZM2.7,7.54H3.82A4.15,4.15,0,0,0,6.2,7,2,2,0,0,0,6.94,5.3a1.84,1.84,0,0,0-.69-1.57,3.62,3.62,0,0,0-2.16-.52H2.7Z"/><path class="cls-1" d="M13.92,4.66a4.72,4.72,0,0,1,1,.09L14.7,5.87a4.13,4.13,0,0,0-.87-.11,2.13,2.13,0,0,0-1.66.79,2.87,2.87,0,0,0-.69,2v4.29H10.27v-8h1l.14,1.48h.06a3.52,3.52,0,0,1,1.07-1.2A2.41,2.41,0,0,1,13.92,4.66Z"/><path class="cls-1" d="M23.26,8.79a4.41,4.41,0,0,1-1,3.05,3.47,3.47,0,0,1-2.72,1.1,3.6,3.6,0,0,1-1.9-.5A3.32,3.32,0,0,1,16.37,11a5,5,0,0,1-.45-2.2,4.4,4.4,0,0,1,1-3,3.45,3.45,0,0,1,2.71-1.09,3.38,3.38,0,0,1,2.66,1.12A4.39,4.39,0,0,1,23.26,8.79Zm-6.09,0a3.79,3.79,0,0,0,.61,2.33,2.13,2.13,0,0,0,1.8.8,2.14,2.14,0,0,0,1.8-.8A3.78,3.78,0,0,0,22,8.79a3.72,3.72,0,0,0-.62-2.31,2.17,2.17,0,0,0-1.82-.79,2.13,2.13,0,0,0-1.79.78A3.75,3.75,0,0,0,17.18,8.79Z"/><path class="cls-1" d="M24.41,16.38a2.91,2.91,0,0,1-1.12-.18v-1a3.56,3.56,0,0,0,1,.15,1,1,0,0,0,.83-.31,1.42,1.42,0,0,0,.27-.94V4.8h1.21V14Q26.59,16.38,24.41,16.38Zm.87-13.74a.81.81,0,0,1,.2-.61.76.76,0,0,1,1,0,.79.79,0,0,1,.21.6.8.8,0,0,1-.21.61.74.74,0,0,1-1,0A.82.82,0,0,1,25.28,2.64Z"/><path class="cls-1" d="M32.54,12.94a3.67,3.67,0,0,1-2.8-1.08,4.18,4.18,0,0,1-1-3,4.63,4.63,0,0,1,1-3.07,3.16,3.16,0,0,1,2.55-1.14,3,3,0,0,1,2.38,1,3.78,3.78,0,0,1,.87,2.61V9H30a3.17,3.17,0,0,0,.71,2.14,2.46,2.46,0,0,0,1.9.73,6.43,6.43,0,0,0,2.55-.54v1.08a6.39,6.39,0,0,1-1.21.4A6.84,6.84,0,0,1,32.54,12.94Zm-.33-7.27a2,2,0,0,0-1.53.63A2.89,2.89,0,0,0,30,8h4.18a2.66,2.66,0,0,0-.51-1.75A1.8,1.8,0,0,0,32.21,5.67Z"/><path class="cls-1" d="M38.73,8.7a14.3,14.3,0,0,1,1-1.17L42.27,4.8H43.7l-3.24,3.4,3.46,4.59H42.46L39.64,9l-.91.79v3h-1.2V1.45h1.2v6q0,.4-.06,1.24Z"/><path class="cls-1" d="M48,11.94a3.94,3.94,0,0,0,.62,0,4,4,0,0,0,.47-.1v.93a2.22,2.22,0,0,1-.58.16,4.4,4.4,0,0,1-.69.06q-2.32,0-2.32-2.44V5.74H44.32V5.16l1.14-.5L46,3h.7V4.8H49v.94H46.67v4.7A1.62,1.62,0,0,0,47,11.55,1.19,1.19,0,0,0,48,11.94Z"/><path class="cls-1" d="M5,22.59a3,3,0,0,1,2.45,1.08,4.72,4.72,0,0,1,.87,3,4.76,4.76,0,0,1-.88,3.06A3,3,0,0,1,5,30.85a3.47,3.47,0,0,1-1.43-.29,2.69,2.69,0,0,1-1.08-.89H2.41l-.25,1H1.28V19.37H2.49v2.76q0,.93-.06,1.66h.06A2.87,2.87,0,0,1,5,22.59Zm-.17,1A2.11,2.11,0,0,0,3,24.31a4,4,0,0,0-.55,2.39,4,4,0,0,0,.56,2.41,2.13,2.13,0,0,0,1.8.73A1.87,1.87,0,0,0,6.52,29a4.18,4.18,0,0,0,.55-2.34,4,4,0,0,0-.55-2.33A1.94,1.94,0,0,0,4.83,23.6Z"/><path class="cls-1" d="M15.35,30.71l-.24-1.14H15a3.37,3.37,0,0,1-1.19,1,3.63,3.63,0,0,1-1.48.27,2.67,2.67,0,0,1-1.86-.61,2.24,2.24,0,0,1-.67-1.74q0-2.42,3.87-2.54l1.36,0v-.5a2,2,0,0,0-.4-1.39,1.67,1.67,0,0,0-1.29-.45,5.27,5.27,0,0,0-2.26.61l-.37-.93a5.71,5.71,0,0,1,1.29-.5,5.62,5.62,0,0,1,1.41-.18,3,3,0,0,1,2.12.63,2.65,2.65,0,0,1,.69,2v5.45Zm-2.73-.85a2.45,2.45,0,0,0,1.77-.62A2.29,2.29,0,0,0,15,27.5v-.72l-1.21.05a4.41,4.41,0,0,0-2.08.45,1.35,1.35,0,0,0-.64,1.24,1.25,1.25,0,0,0,.4,1A1.65,1.65,0,0,0,12.61,29.86Z"/><path class="cls-1" d="M24.17,29.64h-.07a2.84,2.84,0,0,1-2.51,1.22,3,3,0,0,1-2.44-1.07,4.72,4.72,0,0,1-.87-3,4.8,4.8,0,0,1,.88-3.07,2.94,2.94,0,0,1,2.43-1.09,2.91,2.91,0,0,1,2.49,1.18h.09l-.05-.58,0-.56V19.37h1.21V30.71h-1Zm-2.42.2a2.2,2.2,0,0,0,1.8-.67A3.4,3.4,0,0,0,24.11,27v-.25a4,4,0,0,0-.56-2.42,2.15,2.15,0,0,0-1.8-.73,1.85,1.85,0,0,0-1.63.83,4.11,4.11,0,0,0-.57,2.34,3.94,3.94,0,0,0,.56,2.31A1.9,1.9,0,0,0,21.75,29.84Z"/><path class="cls-1" d="M32.8,30.71l-.24-1.14H32.5a3.37,3.37,0,0,1-1.19,1,3.63,3.63,0,0,1-1.48.27A2.67,2.67,0,0,1,28,30.24a2.24,2.24,0,0,1-.67-1.74q0-2.42,3.87-2.54l1.36,0v-.5a2,2,0,0,0-.4-1.39,1.67,1.67,0,0,0-1.29-.45,5.27,5.27,0,0,0-2.26.61l-.37-.93a5.71,5.71,0,0,1,1.29-.5,5.62,5.62,0,0,1,1.41-.18,3,3,0,0,1,2.12.63,2.65,2.65,0,0,1,.69,2v5.45Zm-2.73-.85a2.45,2.45,0,0,0,1.77-.62,2.29,2.29,0,0,0,.65-1.73v-.72l-1.21.05a4.41,4.41,0,0,0-2.08.45,1.35,1.35,0,0,0-.64,1.24,1.25,1.25,0,0,0,.4,1A1.65,1.65,0,0,0,30.06,29.86Z"/><path class="cls-1" d="M42.71,30.71,41.24,26q-.14-.43-.52-2h-.06q-.29,1.28-.51,2l-1.51,4.67h-1.4l-2.18-8h1.27l1.18,4.58A18.68,18.68,0,0,1,38,29.43H38q.08-.41.26-1.08t.31-1l1.47-4.58h1.31l1.43,4.58a15.49,15.49,0,0,1,.55,2.11h.06a7.76,7.76,0,0,1,.16-.81q.13-.55,1.52-5.88h1.25l-2.21,8Z"/><path class="cls-1" d="M51,30.85a3.41,3.41,0,0,1-2.69-1.07,4.39,4.39,0,0,1-1-3,4.53,4.53,0,0,1,1-3.1,3.48,3.48,0,0,1,2.75-1.09,5.49,5.49,0,0,1,1.15.12,3.84,3.84,0,0,1,.9.29l-.37,1a5.61,5.61,0,0,0-.87-.27,3.91,3.91,0,0,0-.84-.11q-2.44,0-2.44,3.11A3.7,3.7,0,0,0,49.2,29,2.07,2.07,0,0,0,51,29.8a5.39,5.39,0,0,0,2-.43v1.07A4.36,4.36,0,0,1,51,30.85Z"/><path class="cls-1" d="M60,30.71h-5.8v-.82l4.36-6.23H54.49v-.94h5.42v.94l-4.3,6.11H60Z"/><path class="cls-1" d="M68.79,26.71a4.41,4.41,0,0,1-1,3.05,3.47,3.47,0,0,1-2.72,1.1,3.6,3.6,0,0,1-1.9-.5,3.32,3.32,0,0,1-1.28-1.44,5,5,0,0,1-.45-2.2,4.4,4.4,0,0,1,1-3,3.45,3.45,0,0,1,2.71-1.09,3.38,3.38,0,0,1,2.66,1.12A4.39,4.39,0,0,1,68.79,26.71Zm-6.09,0A3.79,3.79,0,0,0,63.31,29a2.43,2.43,0,0,0,3.61,0,3.78,3.78,0,0,0,.62-2.34,3.72,3.72,0,0,0-.62-2.31,2.17,2.17,0,0,0-1.82-.79,2.13,2.13,0,0,0-1.79.78A3.75,3.75,0,0,0,62.7,26.71Z"/><path class="cls-1" d="M70.24,27.26V26.15h3.58v1.11Z"/><path class="cls-1" d="M79.35,22.57a4.72,4.72,0,0,1,1,.09l-.17,1.12a4.1,4.1,0,0,0-.87-.11,2.13,2.13,0,0,0-1.66.79,2.87,2.87,0,0,0-.69,2v4.29H75.71v-8h1l.14,1.48h.06A3.52,3.52,0,0,1,78,23,2.42,2.42,0,0,1,79.35,22.57Z"/><path class="cls-1" d="M88.7,26.71a4.41,4.41,0,0,1-1,3.05A3.47,3.47,0,0,1,85,30.85a3.6,3.6,0,0,1-1.9-.5,3.32,3.32,0,0,1-1.28-1.44,5,5,0,0,1-.45-2.2,4.4,4.4,0,0,1,1-3A3.45,3.45,0,0,1,85,22.57a3.38,3.38,0,0,1,2.66,1.12A4.39,4.39,0,0,1,88.7,26.71Zm-6.09,0A3.79,3.79,0,0,0,83.23,29a2.43,2.43,0,0,0,3.61,0,3.78,3.78,0,0,0,.62-2.34,3.72,3.72,0,0,0-.62-2.31A2.17,2.17,0,0,0,85,23.6a2.13,2.13,0,0,0-1.79.78A3.75,3.75,0,0,0,82.61,26.71Z"/><path class="cls-1" d="M95.93,30.71h-5.8v-.82l4.36-6.23H90.41v-.94h5.42v.94l-4.3,6.11h4.41Z"/><path class="cls-1" d="M104.33,30.71,102.86,26q-.14-.43-.52-2h-.06q-.29,1.28-.51,2l-1.51,4.67h-1.4l-2.18-8H98l1.18,4.58a18.68,18.68,0,0,1,.46,2.12h.06q.08-.41.26-1.08t.31-1l1.47-4.58H103l1.43,4.58a15.49,15.49,0,0,1,.55,2.11H105a7.76,7.76,0,0,1,.16-.81q.13-.55,1.52-5.88H108l-2.21,8Z"/><path class="cls-1" d="M116.31,26.71a4.41,4.41,0,0,1-1,3.05,3.47,3.47,0,0,1-2.72,1.1,3.6,3.6,0,0,1-1.9-.5,3.32,3.32,0,0,1-1.28-1.44,5,5,0,0,1-.45-2.2,4.4,4.4,0,0,1,1-3,3.45,3.45,0,0,1,2.71-1.09,3.38,3.38,0,0,1,2.66,1.12A4.39,4.39,0,0,1,116.31,26.71Zm-6.09,0a3.79,3.79,0,0,0,.61,2.33,2.43,2.43,0,0,0,3.61,0,3.78,3.78,0,0,0,.62-2.34,3.72,3.72,0,0,0-.62-2.31,2.17,2.17,0,0,0-1.82-.79,2.13,2.13,0,0,0-1.79.78A3.75,3.75,0,0,0,110.23,26.71Z"/><path class="cls-1" d="M117.47,34.3a2.9,2.9,0,0,1-1.12-.18v-1a3.57,3.57,0,0,0,1,.15,1,1,0,0,0,.83-.31,1.42,1.42,0,0,0,.27-.94v-9.3h1.21v9.21Q119.65,34.3,117.47,34.3Zm.87-13.74a.81.81,0,0,1,.2-.61.76.76,0,0,1,1,0,.79.79,0,0,1,.21.6.8.8,0,0,1-.21.61.74.74,0,0,1-1,0A.82.82,0,0,1,118.33,20.55Z"/><path class="cls-1" d="M129.11,26.71a4.41,4.41,0,0,1-1,3.05,3.47,3.47,0,0,1-2.72,1.1,3.6,3.6,0,0,1-1.9-.5,3.32,3.32,0,0,1-1.28-1.44,5,5,0,0,1-.45-2.2,4.4,4.4,0,0,1,1-3,3.45,3.45,0,0,1,2.71-1.09,3.38,3.38,0,0,1,2.66,1.12A4.39,4.39,0,0,1,129.11,26.71Zm-6.09,0a3.79,3.79,0,0,0,.61,2.33,2.43,2.43,0,0,0,3.61,0,3.78,3.78,0,0,0,.62-2.34,3.72,3.72,0,0,0-.62-2.31,2.17,2.17,0,0,0-1.82-.79,2.13,2.13,0,0,0-1.79.78A3.75,3.75,0,0,0,123,26.71Z"/><path class="cls-1" d="M137.75,30.71,136.29,26q-.14-.43-.52-2h-.06q-.29,1.28-.51,2l-1.51,4.67h-1.4l-2.18-8h1.27l1.18,4.58a18.68,18.68,0,0,1,.46,2.12h.06q.08-.41.26-1.08t.31-1l1.47-4.58h1.31l1.43,4.58a15.49,15.49,0,0,1,.55,2.11h.06a7.76,7.76,0,0,1,.16-.81q.13-.55,1.52-5.88h1.25l-2.21,8Z"/><path class="cls-1" d="M141.57,22.72h1.3l1.75,4.56a17.43,17.43,0,0,1,.71,2.25h.06q.1-.37.4-1.27t2-5.54h1.3l-3.43,9.1a4.53,4.53,0,0,1-1.19,1.91,2.53,2.53,0,0,1-1.67.57,4.85,4.85,0,0,1-1.09-.12v-1a4.2,4.2,0,0,0,.9.09,1.85,1.85,0,0,0,1.78-1.4l.44-1.14Z"/><path class="cls-2" d="M8.31,54.09,7.6,52.66H7.52A4.24,4.24,0,0,1,6,53.94a5.06,5.06,0,0,1-2,.34,3.16,3.16,0,0,1-2.4-.91A3.56,3.56,0,0,1,.7,50.8a2.92,2.92,0,0,1,1.2-2.56,6.56,6.56,0,0,1,3.47-.95l1.8-.06v-.15a1.17,1.17,0,0,0-1.31-1.33,7.86,7.86,0,0,0-3,.8L1.79,44.09a10.34,10.34,0,0,1,4.76-1,4.62,4.62,0,0,1,3.21,1A3.68,3.68,0,0,1,10.89,47v7.07ZM5.56,51.65a1.68,1.68,0,0,0,1.16-.43,1.42,1.42,0,0,0,.48-1.11v-.84l-.86,0q-1.84.07-1.84,1.35Q4.5,51.65,5.56,51.65Z"/><path class="cls-2" d="M19.89,54.28A3.36,3.36,0,0,1,17.14,53H17a13.72,13.72,0,0,1,.17,1.41v4.33H13.42V43.31h3L17,44.68h.17A3.26,3.26,0,0,1,20,43.12a3.22,3.22,0,0,1,2.81,1.48,7.11,7.11,0,0,1,1,4.07,7,7,0,0,1-1.06,4.1A3.35,3.35,0,0,1,19.89,54.28ZM18.64,46a1.2,1.2,0,0,0-1.15.58,3.83,3.83,0,0,0-.36,1.74v.29a4.07,4.07,0,0,0,.37,2,1.26,1.26,0,0,0,1.17.62,1.09,1.09,0,0,0,1-.61,4.66,4.66,0,0,0,.32-2,4.51,4.51,0,0,0-.32-2A1.12,1.12,0,0,0,18.64,46Z"/><path class="cls-2" d="M29.67,54.09H26V39.29h3.72Z"/><path class="cls-2" d="M32.17,40.63a1.57,1.57,0,0,1,.47-1.25,2.26,2.26,0,0,1,1.5-.41,2.26,2.26,0,0,1,1.51.42,1.56,1.56,0,0,1,.48,1.24q0,1.64-2,1.64T32.17,40.63ZM36,54.09H32.27V43.31H36Z"/><path class="cls-2" d="M42.19,48a19.69,19.69,0,0,1,1.15-1.67l2.42-3H49.9l-3.74,4.58,4,6.19H45.89l-2.36-3.86-1.21.92v2.94H38.58V39.29h3.74v5.82A20.08,20.08,0,0,1,42.11,48Z"/><path class="cls-2" d="M58.45,54.09l-.71-1.43h-.08a4.24,4.24,0,0,1-1.53,1.27,5.06,5.06,0,0,1-2,.34,3.16,3.16,0,0,1-2.4-.91,3.56,3.56,0,0,1-.87-2.57A2.92,2.92,0,0,1,52,48.23a6.56,6.56,0,0,1,3.47-.95l1.8-.06v-.15A1.17,1.17,0,0,0,56,45.74a7.86,7.86,0,0,0-3,.8l-1.08-2.45a10.34,10.34,0,0,1,4.76-1,4.62,4.62,0,0,1,3.21,1A3.68,3.68,0,0,1,61,47v7.07ZM55.7,51.65a1.68,1.68,0,0,0,1.16-.43,1.42,1.42,0,0,0,.48-1.11v-.84l-.86,0q-1.84.07-1.84,1.35Q54.64,51.65,55.7,51.65Z"/><path class="cls-2" d="M68.47,54.28a5.29,5.29,0,0,1-4-1.43,5.7,5.7,0,0,1-1.37-4.1,5.13,5.13,0,0,1,5.67-5.63,7.86,7.86,0,0,1,3.53.82L71.2,46.69A11.93,11.93,0,0,0,70,46.22,4,4,0,0,0,68.76,46a1.61,1.61,0,0,0-1.4.7,3.43,3.43,0,0,0-.49,2q0,2.59,1.91,2.59a5.79,5.79,0,0,0,3.14-1v3A6.11,6.11,0,0,1,68.47,54.28Z"/><path class="cls-2" d="M73.79,58.77a8.89,8.89,0,0,1-1.05-.07,6.84,6.84,0,0,1-.95-.17v-2.9a4.22,4.22,0,0,0,1.14.17q1.13,0,1.13-1.62V43.31h3.72V55a3.72,3.72,0,0,1-1,2.79A4.06,4.06,0,0,1,73.79,58.77ZM74,40.63a1.57,1.57,0,0,1,.47-1.25,3,3,0,0,1,3,0,1.56,1.56,0,0,1,.48,1.24q0,1.64-2,1.64T74,40.63Z"/><path class="cls-2" d="M85.58,54.28a5.79,5.79,0,0,1-4.18-1.43,5.39,5.39,0,0,1-1.49-4.08,5.87,5.87,0,0,1,1.38-4.19,5.16,5.16,0,0,1,3.94-1.46A5.22,5.22,0,0,1,89,44.39,4.83,4.83,0,0,1,90.32,48V49.7H83.67a1.85,1.85,0,0,0,.66,1.42,2.6,2.6,0,0,0,1.7.51,8.24,8.24,0,0,0,1.8-.19,9,9,0,0,0,1.78-.63v2.67a6.57,6.57,0,0,1-1.81.62A12.5,12.5,0,0,1,85.58,54.28Zm-.22-8.63a1.55,1.55,0,0,0-1.1.41,1.94,1.94,0,0,0-.52,1.3h3.2a1.85,1.85,0,0,0-.44-1.25A1.46,1.46,0,0,0,85.36,45.65Z"/><path class="cls-3" d="M92,52.51a1.74,1.74,0,0,1,.52-1.35A2.15,2.15,0,0,1,94,50.68a2,2,0,0,1,1.45.48,1.77,1.77,0,0,1,.5,1.35,1.73,1.73,0,0,1-.52,1.34,2,2,0,0,1-1.43.48,2.17,2.17,0,0,1-1.48-.48A1.69,1.69,0,0,1,92,52.51Z"/><path class="cls-3" d="M108.22,43.31v1.8l-1.47.54a2.61,2.61,0,0,1,.3,1.28,3.24,3.24,0,0,1-1.22,2.7,5.83,5.83,0,0,1-3.65,1,4.71,4.71,0,0,1-1-.08,1,1,0,0,0-.13.47c0,.18.15.33.45.42a3.84,3.84,0,0,0,1.17.15h1.79q3.63,0,3.63,3.05a3.46,3.46,0,0,1-1.68,3.06,8.6,8.6,0,0,1-4.71,1.09A6.76,6.76,0,0,1,98.2,58,2.44,2.44,0,0,1,97,55.8q0-1.93,2.4-2.49a2.16,2.16,0,0,1-.86-.68,1.45,1.45,0,0,1-.09-1.81,4.1,4.1,0,0,1,1.15-.92,2.88,2.88,0,0,1-1.32-1.16,3.63,3.63,0,0,1-.48-1.92A3.31,3.31,0,0,1,99,44.09a5.33,5.33,0,0,1,3.42-1c.2,0,.54,0,1,.07s.84.08,1.07.12ZM100.1,55.43a.83.83,0,0,0,.5.74,2.67,2.67,0,0,0,1.32.28,5.75,5.75,0,0,0,2.16-.34q.81-.34.81-.87a.63.63,0,0,0-.5-.6,4.43,4.43,0,0,0-1.42-.18h-1.46a1.76,1.76,0,0,0-1,.28A.82.82,0,0,0,100.1,55.43Zm1.17-8.59q0,1.66,1.15,1.66a1,1,0,0,0,.82-.41,2.12,2.12,0,0,0,.29-1.23q0-1.67-1.11-1.67T101.27,46.84Z"/><path class="cls-3" d="M120.15,48.67a5.71,5.71,0,0,1-1.42,4.12,5.26,5.26,0,0,1-4,1.48,5.16,5.16,0,0,1-3.91-1.51,5.66,5.66,0,0,1-1.45-4.09,5.62,5.62,0,0,1,1.42-4.09,5.31,5.31,0,0,1,4-1.46,5.69,5.69,0,0,1,2.81.68,4.62,4.62,0,0,1,1.88,1.94A6.26,6.26,0,0,1,120.15,48.67Zm-7,0a4.78,4.78,0,0,0,.37,2.12,1.29,1.29,0,0,0,1.25.73,1.25,1.25,0,0,0,1.22-.73,5,5,0,0,0,.36-2.12,4.72,4.72,0,0,0-.36-2.08,1.43,1.43,0,0,0-2.46,0A4.58,4.58,0,0,0,113.17,48.67Z"/><path class="cls-3" d="M125.1,54.09,121,43.31h3.88l1.83,6.37,0,.16c0,.08,0,.17.06.27s0,.22.05.33a2.49,2.49,0,0,1,0,.33h.07a3.85,3.85,0,0,1,.17-1.08L129,43.31h3.87l-4.11,10.78Z"/><path class="cls-3" d="M132.54,52.51a1.74,1.74,0,0,1,.52-1.35,2.15,2.15,0,0,1,1.51-.48,2,2,0,0,1,1.45.48,1.77,1.77,0,0,1,.5,1.35,1.73,1.73,0,0,1-.52,1.34,2,2,0,0,1-1.43.48,2.17,2.17,0,0,1-1.48-.48A1.69,1.69,0,0,1,132.54,52.51Z"/><path class="cls-3" d="M145.11,54.28A3.36,3.36,0,0,1,142.36,53h-.17a13.72,13.72,0,0,1,.17,1.41v4.33h-3.72V43.31h3l.52,1.37h.17a3.26,3.26,0,0,1,2.86-1.56A3.22,3.22,0,0,1,148,44.6a7.11,7.11,0,0,1,1,4.07,7,7,0,0,1-1.06,4.1A3.35,3.35,0,0,1,145.11,54.28ZM143.86,46a1.2,1.2,0,0,0-1.15.58,3.83,3.83,0,0,0-.36,1.74v.29a4.07,4.07,0,0,0,.37,2,1.26,1.26,0,0,0,1.17.62,1.09,1.09,0,0,0,1-.61,4.66,4.66,0,0,0,.32-2,4.51,4.51,0,0,0-.32-2A1.12,1.12,0,0,0,143.86,46Z"/><path class="cls-3" d="M154.89,54.09h-3.72V39.29h3.72Z"/></svg>